<svg width="270" height="270" viewBox="0 0 270 270" fill="none" xmlns="http://www.w3.org/2000/svg">
<g id="sad">
<circle id="Ellipse 13" cx="134.5" cy="134.5" r="134.5" fill="#D3B82A"/>
<path id="Subtract" fill-rule="evenodd" clip-rule="evenodd" d="M111.277 240.464C191.359 240.464 256.277 175.545 256.277 95.4639C256.277 88.171 255.739 81.0038 254.7 74C264.021 92.3003 269.277 113.018 269.277 134.964C269.277 209.246 209.06 269.464 134.777 269.464C88.8291 269.464 48.2622 246.423 24 211.266C48.2815 229.595 78.5101 240.464 111.277 240.464Z" fill="#AB9109"/>
<ellipse id="Ellipse 14" cx="77" cy="95" rx="16" ry="31" fill="black"/>
<ellipse id="Ellipse 15" cx="193" cy="95" rx="16" ry="31" fill="black"/>
<path id="Rectangle 26" d="M217 191.608C217 202.796 202.828 208.522 193.986 201.666C151.664 168.847 111.73 173.363 76.1764 201.098C67.3403 207.991 53 202.294 53 191.088C53 187.101 54.9694 183.336 58.2646 181.092C124.622 135.9 149.187 143.534 211.118 181.136C214.773 183.355 217 187.332 217 191.608Z" fill="black"/>
</g>
</svg>
