<svg width="1058" height="940" viewBox="0 0 1058 940" fill="none" xmlns="http://www.w3.org/2000/svg">
<g id="idea">
<g id="bub2">
<circle id="Ellipse 2" cx="455.5" cy="509.5" r="71.5" stroke="black" stroke-width="12"/>
</g>
<g id="Dude">
<g id="Ellipse" filter="url(#filter0_d)">
<path d="M292.587 792.734C292.587 869.648 232.226 932 157.766 932C83.3072 932 22.9461 869.648 22.9461 792.734C22.9461 715.819 83.3072 653.467 157.766 653.467C232.226 653.467 292.587 715.819 292.587 792.734Z" fill="#FFF3E6"/>
</g>
<path id="Vector 7.5" d="M273.814 851.687C233.456 897.824 130.564 962.416 41.8675 851.687L40.012 857.454L76.1957 903.591L130.471 928.582H185.675C199.591 922.655 228.353 909.839 232.064 905.994C235.775 902.149 255.877 884.207 265.464 875.717L273.814 851.687Z" fill="#D7A97F"/>
<g id="Ellipse (Stroke)">
<mask id="path-7-inside-1" fill="white">
<path fill-rule="evenodd" clip-rule="evenodd" d="M157.766 924.67C227.944 924.67 285.25 865.833 285.25 792.734C285.25 719.634 227.944 660.797 157.766 660.797C87.5888 660.797 30.2833 719.634 30.2833 792.734C30.2833 865.833 87.5888 924.67 157.766 924.67ZM157.766 932C232.226 932 292.587 869.648 292.587 792.734C292.587 715.819 232.226 653.467 157.766 653.467C83.3072 653.467 22.9461 715.819 22.9461 792.734C22.9461 869.648 83.3072 932 157.766 932Z"/>
</mask>
<path fill-rule="evenodd" clip-rule="evenodd" d="M157.766 924.67C227.944 924.67 285.25 865.833 285.25 792.734C285.25 719.634 227.944 660.797 157.766 660.797C87.5888 660.797 30.2833 719.634 30.2833 792.734C30.2833 865.833 87.5888 924.67 157.766 924.67ZM157.766 932C232.226 932 292.587 869.648 292.587 792.734C292.587 715.819 232.226 653.467 157.766 653.467C83.3072 653.467 22.9461 715.819 22.9461 792.734C22.9461 869.648 83.3072 932 157.766 932Z" fill="black"/>
<path d="M277.25 792.734C277.25 861.657 223.287 916.67 157.766 916.67V932.67C232.601 932.67 293.25 870.009 293.25 792.734H277.25ZM157.766 668.797C223.287 668.797 277.25 723.81 277.25 792.734H293.25C293.25 715.458 232.601 652.797 157.766 652.797V668.797ZM38.2833 792.734C38.2833 723.81 92.2456 668.797 157.766 668.797V652.797C82.9321 652.797 22.2833 715.458 22.2833 792.734H38.2833ZM157.766 916.67C92.2456 916.67 38.2833 861.657 38.2833 792.734H22.2833C22.2833 870.009 82.9321 932.67 157.766 932.67V916.67ZM284.587 792.734C284.587 865.477 227.565 924 157.766 924V940C236.887 940 300.587 873.82 300.587 792.734H284.587ZM157.766 661.467C227.565 661.467 284.587 719.99 284.587 792.734H300.587C300.587 711.647 236.887 645.467 157.766 645.467V661.467ZM30.9461 792.734C30.9461 719.99 87.9682 661.467 157.766 661.467V645.467C78.6463 645.467 14.9461 711.647 14.9461 792.734H30.9461ZM157.766 924C87.9682 924 30.9461 865.477 30.9461 792.734H14.9461C14.9461 873.82 78.6463 940 157.766 940V924Z" fill="black" mask="url(#path-7-inside-1)"/>
</g>
<g id="Vector" filter="url(#filter1_d)">
<path d="M11 691.346C12.7224 694.455 16.4491 717.742 17.5765 786.019C38.2456 791.616 51.2421 742.957 55.1567 717.929C62.5161 726.79 78.7382 743.859 84.751 741.247C90.7638 738.636 116.694 717.152 128.908 706.736C139.242 725.235 161.321 761.208 166.958 757.104C172.595 753 187.47 726.79 194.203 714.198C218.63 760.213 271.336 813.628 286.744 786.019C302.152 758.41 295.086 739.693 288.666 714.198C242.161 550.035 12.9221 653.103 19.4986 651.238C26.0751 649.372 48.5801 670.825 48.5801 673.157C48.5801 675.023 23.5267 686.06 11 691.346Z" fill="#A56B46"/>
<path d="M11 691.346C12.7224 694.455 16.4491 717.742 17.5765 786.019C38.2456 791.616 51.2421 742.957 55.1567 717.929C62.5161 726.79 78.7382 743.859 84.751 741.247C90.7638 738.636 116.694 717.152 128.908 706.736C139.242 725.235 161.321 761.208 166.958 757.104C172.595 753 187.47 726.79 194.203 714.198C218.63 760.213 271.336 813.628 286.744 786.019C302.152 758.41 295.086 739.693 288.666 714.198C242.161 550.035 12.9221 653.103 19.4986 651.238C26.0751 649.372 48.5801 670.825 48.5801 673.157C48.5801 675.023 23.5267 686.06 11 691.346Z" stroke="black" stroke-width="9"/>
</g>
<g id="Vector 2.13" filter="url(#filter2_d)">
<path d="M145.031 776.659C133.306 771.381 99.9455 763.992 60.3048 776.659C56.6343 775.106 60.3048 817.95 63.9752 821.986C67.6456 826.022 139.525 824.47 142.89 820.434C146.254 816.398 150.231 787.214 149.007 781.937C148.028 777.714 145.948 776.659 145.031 776.659Z" fill="#D3D3D3"/>
<path d="M145.031 776.659C133.306 771.381 99.9455 763.992 60.3048 776.659C56.6343 775.106 60.3048 817.95 63.9752 821.986C67.6456 826.022 139.525 824.47 142.89 820.434C146.254 816.398 150.231 787.214 149.007 781.937C148.028 777.714 145.948 776.659 145.031 776.659Z" stroke="black" stroke-width="7"/>
</g>
<g id="Vector 3.13" filter="url(#filter3_d)">
<path d="M80.9701 802.132C90.0531 791.543 99.7174 789.149 108.181 790.523C117.032 791.959 124.57 797.517 128.755 802.132" stroke="#4D6EE6" stroke-width="7"/>
</g>
<g id="Vector 2.14" filter="url(#filter4_d)">
<path d="M257.666 776.659C245.941 771.381 212.58 763.992 172.94 776.659C169.269 775.106 172.94 817.95 176.61 821.986C180.28 826.022 252.16 824.47 255.524 820.434C258.889 816.398 262.865 787.214 261.642 781.937C260.663 777.714 258.583 776.659 257.666 776.659Z" fill="#D3D3D3"/>
<path d="M257.666 776.659C245.941 771.381 212.58 763.992 172.94 776.659C169.269 775.106 172.94 817.95 176.61 821.986C180.28 826.022 252.16 824.47 255.524 820.434C258.889 816.398 262.865 787.214 261.642 781.937C260.663 777.714 258.583 776.659 257.666 776.659Z" stroke="black" stroke-width="7"/>
</g>
<g id="Vector 3.14" filter="url(#filter5_d)">
<path d="M193.605 802.132C202.688 791.543 212.352 789.149 220.815 790.523C229.667 791.959 237.205 797.517 241.389 802.132" stroke="#4D6EE6" stroke-width="7"/>
</g>
<g id="Vector 4.5" filter="url(#filter6_d)">
<path d="M149.234 800.423C159.473 784.949 168.29 793.976 171.419 800.423" stroke="black" stroke-width="7"/>
</g>
<g id="Vector 6.3" filter="url(#filter7_d)">
<path d="M149.234 848.269C160.016 826.606 166.241 839.243 168.006 848.269" stroke="black" stroke-width="4"/>
</g>
<path id="Vector 7.6" d="M236.269 891.336C202.687 859.237 148.863 829.112 77.5569 891.336L88.5978 896.314C149.691 844.036 206.214 875.424 227.989 897.824L236.269 891.336Z" fill="#D7A97F"/>
<path id="Vector 8.2" d="M58.7844 796.569C42.5234 793.045 30.3922 797.67 26.3593 800.423" stroke="black" stroke-width="7"/>
<path id="Vector 9.3" d="M258.455 803.707C274.19 799.648 284.353 804.383 287.467 807.258" stroke="black" stroke-width="7"/>
<g id="Vector 5.4" filter="url(#filter8_d)">
<path d="M128.755 882.445C153.612 901.014 175.519 890.182 183.365 882.445" stroke="black" stroke-width="4"/>
</g>
</g>
<g id="bub1">
<circle id="Ellipse 1" cx="328.5" cy="601.5" r="43.5" stroke="black" stroke-width="12"/>
</g>
<g id="bubble">
<path id="Union" d="M986.415 167.869L985.418 172.666L989.92 174.602C1028.45 191.168 1052 218.759 1052 248.505C1052 281.963 1022.09 312.753 975.003 328.003L971.078 329.274L970.86 333.394C968.406 379.767 919.991 418.745 857.978 418.745C854.49 418.745 851.039 418.62 847.633 418.376L844.071 418.12L842.148 421.129C821.632 453.235 771.784 477 712.106 477C661.244 477 617.276 459.692 592.762 434.51L591.065 432.766L588.633 432.697C526.877 430.946 479.775 390.627 479.775 343.631C479.775 341.844 479.841 340.072 479.973 338.313L480.354 333.213L475.379 332.029C420.312 318.923 384 285.307 384 248.505C384 221.183 403.817 195.713 437.005 178.848L441.135 176.749L440.149 172.222C439.077 167.299 438.518 162.236 438.518 157.067C438.518 109.028 487.779 67.942 551.499 67.942C558.679 67.942 565.698 68.4713 572.498 69.4818L576.657 70.0999L578.657 66.4014C597.226 32.0691 648.824 6 711.369 6C772.284 6 822.898 30.7474 842.612 63.8164L844.755 67.4097L848.867 66.6421C857.226 65.082 865.949 64.255 874.923 64.255C938.643 64.255 987.905 105.341 987.905 153.38C987.905 158.316 987.395 163.155 986.415 167.869Z" stroke="black" stroke-width="12"/>
<path id="text" d="M658.3 224.36C660.94 223.4 663.22 222.92 665.14 222.92C668.38 222.92 670.84 223.88 672.52 225.8C674.32 227.72 675.22 230 675.22 232.64C675.22 233.6 675.16 234.32 675.04 234.8C674.2 238.04 672.76 240.56 670.72 242.36C668.68 244.04 665.44 245.66 661 247.22L603.94 266.48L650.74 284.66C654.22 285.98 656.86 287.72 658.66 289.88C660.46 291.92 661.36 294.26 661.36 296.9C661.36 298.1 661.18 299.24 660.82 300.32C659.5 305 656.44 307.34 651.64 307.34C649.48 307.34 646.72 306.68 643.36 305.36L569.92 274.94C565.48 273.02 563.26 270.26 563.26 266.66C563.26 266.06 563.38 265.28 563.62 264.32C564.1 261.92 565.12 260.06 566.68 258.74C568.24 257.3 570.58 256.04 573.7 254.96L658.3 224.36ZM690.957 329.3C689.397 331.7 687.837 333.44 686.277 334.52C684.717 335.6 683.097 336.14 681.417 336.14C678.897 336.14 676.917 335.42 675.477 333.98C674.037 332.66 673.317 330.98 673.317 328.94C673.317 327.26 673.857 325.58 674.937 323.9L758.097 196.82C760.977 192.26 764.277 189.98 767.997 189.98C770.397 189.98 772.257 190.7 773.577 192.14C775.017 193.58 775.737 195.32 775.737 197.36C775.737 199.16 775.197 200.9 774.117 202.58L690.957 329.3ZM872.073 255.32C876.513 257.24 878.733 260 878.733 263.6C878.733 264.2 878.613 264.98 878.373 265.94C877.893 268.34 876.873 270.26 875.313 271.7C873.753 273.02 871.413 274.22 868.293 275.3L783.693 305.9C781.053 306.86 778.773 307.34 776.853 307.34C773.613 307.34 771.093 306.38 769.293 304.46C767.613 302.54 766.773 300.26 766.773 297.62C766.773 296.66 766.833 295.94 766.953 295.46C767.793 292.22 769.233 289.76 771.273 288.08C773.313 286.28 776.553 284.6 780.993 283.04L838.053 263.78L791.253 245.6C787.773 244.28 785.133 242.6 783.333 240.56C781.533 238.4 780.633 236 780.633 233.36C780.633 232.16 780.813 231.02 781.173 229.94C782.493 225.26 785.553 222.92 790.353 222.92C792.513 222.92 795.273 223.58 798.633 224.9L872.073 255.32Z" fill="#00B712"/>
</g>
</g>
<defs>
<filter id="filter0_d" x="18.9461" y="653.467" width="277.641" height="286.533" filterUnits="userSpaceOnUse" color-interpolation-filters="sRGB">
<feFlood flood-opacity="0" result="BackgroundImageFix"/>
<feColorMatrix in="SourceAlpha" type="matrix" values="0 0 0 0 0 0 0 0 0 0 0 0 0 0 0 0 0 0 127 0"/>
<feOffset dy="4"/>
<feGaussianBlur stdDeviation="2"/>
<feColorMatrix type="matrix" values="0 0 0 0 0 0 0 0 0 0 0 0 0 0 0 0 0 0 0.25 0"/>
<feBlend mode="normal" in2="BackgroundImageFix" result="effect1_dropShadow"/>
<feBlend mode="normal" in="SourceGraphic" in2="effect1_dropShadow" result="shape"/>
</filter>
<filter id="filter1_d" x="0.637146" y="616.5" width="303.863" height="189.588" filterUnits="userSpaceOnUse" color-interpolation-filters="sRGB">
<feFlood flood-opacity="0" result="BackgroundImageFix"/>
<feColorMatrix in="SourceAlpha" type="matrix" values="0 0 0 0 0 0 0 0 0 0 0 0 0 0 0 0 0 0 127 0"/>
<feOffset dy="4"/>
<feGaussianBlur stdDeviation="2"/>
<feColorMatrix type="matrix" values="0 0 0 0 0 0 0 0 0 0 0 0 0 0 0 0 0 0 0.25 0"/>
<feBlend mode="normal" in2="BackgroundImageFix" result="effect1_dropShadow"/>
<feBlend mode="normal" in="SourceGraphic" in2="effect1_dropShadow" result="shape"/>
</filter>
<filter id="filter2_d" x="51.2845" y="766.165" width="105.449" height="69.6813" filterUnits="userSpaceOnUse" color-interpolation-filters="sRGB">
<feFlood flood-opacity="0" result="BackgroundImageFix"/>
<feColorMatrix in="SourceAlpha" type="matrix" values="0 0 0 0 0 0 0 0 0 0 0 0 0 0 0 0 0 0 127 0"/>
<feOffset dy="4"/>
<feGaussianBlur stdDeviation="2"/>
<feColorMatrix type="matrix" values="0 0 0 0 0 0 0 0 0 0 0 0 0 0 0 0 0 0 0.25 0"/>
<feBlend mode="normal" in2="BackgroundImageFix" result="effect1_dropShadow"/>
<feBlend mode="normal" in="SourceGraphic" in2="effect1_dropShadow" result="shape"/>
</filter>
<filter id="filter3_d" x="74.3135" y="786.67" width="61.0337" height="25.8127" filterUnits="userSpaceOnUse" color-interpolation-filters="sRGB">
<feFlood flood-opacity="0" result="BackgroundImageFix"/>
<feColorMatrix in="SourceAlpha" type="matrix" values="0 0 0 0 0 0 0 0 0 0 0 0 0 0 0 0 0 0 127 0"/>
<feOffset dy="4"/>
<feGaussianBlur stdDeviation="2"/>
<feColorMatrix type="matrix" values="0 0 0 0 0 0 0 0 0 0 0 0 0 0 0 0 0 0 0.25 0"/>
<feBlend mode="normal" in2="BackgroundImageFix" result="effect1_dropShadow"/>
<feBlend mode="normal" in="SourceGraphic" in2="effect1_dropShadow" result="shape"/>
</filter>
<filter id="filter4_d" x="163.919" y="766.165" width="105.449" height="69.6813" filterUnits="userSpaceOnUse" color-interpolation-filters="sRGB">
<feFlood flood-opacity="0" result="BackgroundImageFix"/>
<feColorMatrix in="SourceAlpha" type="matrix" values="0 0 0 0 0 0 0 0 0 0 0 0 0 0 0 0 0 0 127 0"/>
<feOffset dy="4"/>
<feGaussianBlur stdDeviation="2"/>
<feColorMatrix type="matrix" values="0 0 0 0 0 0 0 0 0 0 0 0 0 0 0 0 0 0 0.25 0"/>
<feBlend mode="normal" in2="BackgroundImageFix" result="effect1_dropShadow"/>
<feBlend mode="normal" in="SourceGraphic" in2="effect1_dropShadow" result="shape"/>
</filter>
<filter id="filter5_d" x="186.948" y="786.67" width="61.0337" height="25.8127" filterUnits="userSpaceOnUse" color-interpolation-filters="sRGB">
<feFlood flood-opacity="0" result="BackgroundImageFix"/>
<feColorMatrix in="SourceAlpha" type="matrix" values="0 0 0 0 0 0 0 0 0 0 0 0 0 0 0 0 0 0 127 0"/>
<feOffset dy="4"/>
<feGaussianBlur stdDeviation="2"/>
<feColorMatrix type="matrix" values="0 0 0 0 0 0 0 0 0 0 0 0 0 0 0 0 0 0 0.25 0"/>
<feBlend mode="normal" in2="BackgroundImageFix" result="effect1_dropShadow"/>
<feBlend mode="normal" in="SourceGraphic" in2="effect1_dropShadow" result="shape"/>
</filter>
<filter id="filter6_d" x="142.315" y="788.379" width="36.2533" height="21.9754" filterUnits="userSpaceOnUse" color-interpolation-filters="sRGB">
<feFlood flood-opacity="0" result="BackgroundImageFix"/>
<feColorMatrix in="SourceAlpha" type="matrix" values="0 0 0 0 0 0 0 0 0 0 0 0 0 0 0 0 0 0 127 0"/>
<feOffset dy="4"/>
<feGaussianBlur stdDeviation="2"/>
<feColorMatrix type="matrix" values="0 0 0 0 0 0 0 0 0 0 0 0 0 0 0 0 0 0 0.25 0"/>
<feBlend mode="normal" in2="BackgroundImageFix" result="effect1_dropShadow"/>
<feBlend mode="normal" in="SourceGraphic" in2="effect1_dropShadow" result="shape"/>
</filter>
<filter id="filter7_d" x="143.443" y="834.308" width="30.5258" height="22.8527" filterUnits="userSpaceOnUse" color-interpolation-filters="sRGB">
<feFlood flood-opacity="0" result="BackgroundImageFix"/>
<feColorMatrix in="SourceAlpha" type="matrix" values="0 0 0 0 0 0 0 0 0 0 0 0 0 0 0 0 0 0 127 0"/>
<feOffset dy="4"/>
<feGaussianBlur stdDeviation="2"/>
<feColorMatrix type="matrix" values="0 0 0 0 0 0 0 0 0 0 0 0 0 0 0 0 0 0 0.25 0"/>
<feBlend mode="normal" in2="BackgroundImageFix" result="effect1_dropShadow"/>
<feBlend mode="normal" in="SourceGraphic" in2="effect1_dropShadow" result="shape"/>
</filter>
<filter id="filter8_d" x="123.558" y="880.843" width="65.212" height="21.8591" filterUnits="userSpaceOnUse" color-interpolation-filters="sRGB">
<feFlood flood-opacity="0" result="BackgroundImageFix"/>
<feColorMatrix in="SourceAlpha" type="matrix" values="0 0 0 0 0 0 0 0 0 0 0 0 0 0 0 0 0 0 127 0"/>
<feOffset dy="4"/>
<feGaussianBlur stdDeviation="2"/>
<feColorMatrix type="matrix" values="0 0 0 0 0 0 0 0 0 0 0 0 0 0 0 0 0 0 0.25 0"/>
<feBlend mode="normal" in2="BackgroundImageFix" result="effect1_dropShadow"/>
<feBlend mode="normal" in="SourceGraphic" in2="effect1_dropShadow" result="shape"/>
</filter>
</defs>
</svg>
