<svg width="1853" height="589" viewBox="0 0 1853 589" fill="none" xmlns="http://www.w3.org/2000/svg">
<g id="coders">
<g id="github">
<path id="Vector" d="M145.831 410.404C145.831 412.158 143.81 413.56 141.26 413.56C138.36 413.823 136.338 412.421 136.338 410.404C136.338 408.651 138.36 407.248 140.909 407.248C143.546 406.985 145.831 408.388 145.831 410.404ZM118.494 406.459C117.878 408.212 119.636 410.229 122.273 410.755C124.559 411.632 127.196 410.755 127.723 409.001C128.251 407.248 126.581 405.231 123.944 404.442C121.658 403.829 119.109 404.705 118.494 406.459ZM157.347 404.968C154.798 405.582 153.04 407.248 153.303 409.264C153.567 411.018 155.852 412.158 158.49 411.544C161.039 410.93 162.797 409.264 162.533 407.511C162.269 405.845 159.896 404.705 157.347 404.968ZM215.187 69C93.2653 69 0 161.321 0 282.926C0 380.157 61.3565 463.36 148.996 492.643C160.248 494.659 164.203 487.733 164.203 482.034C164.203 476.598 163.94 446.614 163.94 428.202C163.94 428.202 102.407 441.353 89.4855 402.075C89.4855 402.075 79.4645 376.562 65.0484 369.986C65.0484 369.986 44.9185 356.221 66.4548 356.484C66.4548 356.484 88.3427 358.238 100.385 379.104C119.636 412.947 151.897 403.215 164.467 397.428C166.489 383.4 172.202 373.669 178.531 367.882C129.394 362.446 79.8161 355.345 79.8161 271.002C79.8161 246.891 86.4968 234.792 100.561 219.362C98.2758 213.663 90.804 190.166 102.847 159.831C121.219 154.132 163.5 183.503 163.5 183.503C181.081 178.593 199.98 176.05 218.703 176.05C237.427 176.05 256.326 178.593 273.906 183.503C273.906 183.503 316.188 154.044 334.56 159.831C346.602 190.254 339.131 213.663 336.845 219.362C350.91 234.88 359.524 246.979 359.524 271.002C359.524 355.608 307.749 362.359 258.611 367.882C266.698 374.808 273.555 387.96 273.555 408.563C273.555 438.109 273.291 474.67 273.291 481.859C273.291 487.558 277.335 494.484 288.498 492.467C376.402 463.36 436 380.157 436 282.926C436 161.321 337.109 69 215.187 69ZM85.4419 371.389C84.2992 372.266 84.5629 374.282 86.0573 375.948C87.4637 377.351 89.4855 377.965 90.6282 376.825C91.771 375.948 91.5073 373.932 90.0129 372.266C88.6065 370.863 86.5847 370.249 85.4419 371.389ZM75.9484 364.287C75.3331 365.427 76.2121 366.83 77.9702 367.707C79.3766 368.584 81.1347 368.32 81.75 367.093C82.3653 365.953 81.4863 364.55 79.7282 363.674C77.9702 363.148 76.5637 363.411 75.9484 364.287ZM104.429 395.5C103.023 396.639 103.55 399.27 105.572 400.935C107.594 402.952 110.143 403.215 111.285 401.812C112.428 400.672 111.901 398.042 110.143 396.376C108.209 394.36 105.572 394.097 104.429 395.5ZM94.4081 382.611C93.0016 383.488 93.0016 385.768 94.4081 387.784C95.8145 389.801 98.1879 390.677 99.3306 389.801C100.737 388.661 100.737 386.381 99.3306 384.365C98.1 382.348 95.8145 381.472 94.4081 382.611Z" fill="black"/>
</g>
<g id="lady">
<g id="Ellipse 7" filter="url(#filter0_d)">
<path d="M1269 349.5C1269 451.949 1199.38 535 1113.5 535C1027.62 535 958 451.949 958 349.5C958 247.051 1027.62 164 1113.5 164C1199.38 164 1269 247.051 1269 349.5Z" fill="#9B5E29"/>
</g>
<path id="Vector 2.7" d="M1095.07 316.058C1081.33 309.977 1042.24 301.464 995.782 316.058C991.48 314.27 995.782 363.631 1000.08 368.281C1004.38 372.931 1088.62 371.142 1092.57 366.492C1096.51 361.842 1101.17 328.219 1099.73 322.139C1098.59 317.274 1096.15 316.058 1095.07 316.058Z" fill="#D3D3D3" stroke="black" stroke-width="7"/>
<path id="Vector 2.8" d="M1227.07 316.058C1213.33 309.977 1174.24 301.464 1127.78 316.058C1123.48 314.27 1127.78 363.631 1132.08 368.281C1136.38 372.931 1220.62 371.142 1224.57 366.492C1228.51 361.842 1233.17 328.219 1231.73 322.139C1230.59 317.274 1228.15 316.058 1227.07 316.058Z" fill="#D3D3D3" stroke="black" stroke-width="7"/>
<path id="Vector 4.1" d="M1100 343C1112.92 328.511 1124.05 336.963 1128 343" stroke="black" stroke-width="7"/>
<path id="Vector 2.7_2" d="M1095.07 316.058C1081.33 309.977 1042.24 301.464 995.782 316.058C991.48 314.27 995.782 363.631 1000.08 368.281C1004.38 372.931 1088.62 371.142 1092.57 366.492C1096.51 361.842 1101.17 328.219 1099.73 322.139C1098.59 317.274 1096.15 316.058 1095.07 316.058Z" fill="#D3D3D3" stroke="black" stroke-width="7"/>
<path id="Vector 2.8_2" d="M1227.07 316.058C1213.33 309.977 1174.24 301.464 1127.78 316.058C1123.48 314.27 1127.78 363.631 1132.08 368.281C1136.38 372.931 1220.62 371.142 1224.57 366.492C1228.51 361.842 1233.17 328.219 1231.73 322.139C1230.59 317.274 1228.15 316.058 1227.07 316.058Z" fill="#D3D3D3" stroke="black" stroke-width="7"/>
<path id="Vector 4.1_2" d="M1100 343C1112.92 328.511 1124.05 336.963 1128 343" stroke="black" stroke-width="7"/>
<g id="Union" filter="url(#filter1_d)">
<path d="M1189.9 59.8622C1179.26 25.0812 1149.07 0 1113.5 0C1077.88 0 1047.66 25.1494 1037.05 60.0041C1029.63 57.5516 1021.76 56.2327 1013.6 56.2327C969.144 56.2327 933.102 95.4078 933.102 143.733C933.102 155.225 935.141 166.2 938.846 176.254C900.89 183.302 872 219.234 872 262.5C872 310.825 908.041 350 952.5 350C990.066 350 1078.92 251.254 1105.57 191.482H1129.49C1146.52 247.195 1234.45 350 1274.5 350C1318.96 350 1355 310.825 1355 262.5C1355 219.514 1326.48 183.768 1288.89 176.394C1292.74 166.171 1294.87 154.979 1294.87 143.248C1294.87 94.923 1258.83 55.7479 1214.37 55.7479C1205.84 55.7479 1197.62 57.19 1189.9 59.8622Z" fill="#471513"/>
</g>
<ellipse id="Ellipse 11" cx="1047" cy="339" rx="12" ry="18" fill="#404040"/>
<ellipse id="Ellipse 12" cx="1181" cy="339" rx="12" ry="18" fill="#404040"/>
<ellipse id="Ellipse 23" cx="1181" cy="339" rx="12" ry="18" fill="#404040"/>
<g id="Subtract" filter="url(#filter2_d)">
<path d="M1041 423C1041 449.51 1073.68 471 1114 471C1154.32 471 1187 449.51 1187 423H1041Z" fill="#FFCCCC"/>
</g>
<rect id="Rectangle 11" x="1057" y="423" width="114" height="17" rx="5" fill="white"/>
<g id="Ellipse 26" filter="url(#filter3_d)">
<path d="M1269 349.5C1269 451.949 1199.38 535 1113.5 535C1027.62 535 958 451.949 958 349.5C958 247.051 1027.62 164 1113.5 164C1199.38 164 1269 247.051 1269 349.5Z" fill="#9B5E29"/>
</g>
<path id="Vector 2.7_3" d="M1095.07 316.058C1081.33 309.977 1042.24 301.464 995.782 316.058C991.48 314.27 995.782 363.631 1000.08 368.281C1004.38 372.931 1088.62 371.142 1092.57 366.492C1096.51 361.842 1101.17 328.219 1099.73 322.139C1098.59 317.274 1096.15 316.058 1095.07 316.058Z" fill="#D3D3D3" stroke="black" stroke-width="7"/>
<path id="Vector 2.8_3" d="M1227.07 316.058C1213.33 309.977 1174.24 301.464 1127.78 316.058C1123.48 314.27 1127.78 363.631 1132.08 368.281C1136.38 372.931 1220.62 371.142 1224.57 366.492C1228.51 361.842 1233.17 328.219 1231.73 322.139C1230.59 317.274 1228.15 316.058 1227.07 316.058Z" fill="#D3D3D3" stroke="black" stroke-width="7"/>
<path id="Vector 4.1_3" d="M1100 343C1112.92 328.511 1124.05 336.963 1128 343" stroke="black" stroke-width="7"/>
<path id="Vector 2.7_4" d="M1095.07 316.058C1081.33 309.977 1042.24 301.464 995.782 316.058C991.48 314.27 995.782 363.631 1000.08 368.281C1004.38 372.931 1088.62 371.142 1092.57 366.492C1096.51 361.842 1101.17 328.219 1099.73 322.139C1098.59 317.274 1096.15 316.058 1095.07 316.058Z" fill="#D3D3D3" stroke="black" stroke-width="7"/>
<path id="Vector 2.8_4" d="M1227.07 316.058C1213.33 309.977 1174.24 301.464 1127.78 316.058C1123.48 314.27 1127.78 363.631 1132.08 368.281C1136.38 372.931 1220.62 371.142 1224.57 366.492C1228.51 361.842 1233.17 328.219 1231.73 322.139C1230.59 317.274 1228.15 316.058 1227.07 316.058Z" fill="#D3D3D3" stroke="black" stroke-width="7"/>
<path id="Vector 4.1_4" d="M1100 343C1112.92 328.511 1124.05 336.963 1128 343" stroke="black" stroke-width="7"/>
<g id="Union_2" filter="url(#filter4_d)">
<path d="M1189.9 59.8622C1179.26 25.0812 1149.07 0 1113.5 0C1077.88 0 1047.66 25.1494 1037.05 60.0041C1029.63 57.5516 1021.76 56.2327 1013.6 56.2327C969.144 56.2327 933.102 95.4078 933.102 143.733C933.102 155.225 935.141 166.2 938.846 176.254C900.89 183.302 872 219.234 872 262.5C872 310.825 908.041 350 952.5 350C990.066 350 1078.92 251.254 1105.57 191.482H1129.49C1146.52 247.195 1234.45 350 1274.5 350C1318.96 350 1355 310.825 1355 262.5C1355 219.514 1326.48 183.768 1288.89 176.394C1292.74 166.171 1294.87 154.979 1294.87 143.248C1294.87 94.923 1258.83 55.7479 1214.37 55.7479C1205.84 55.7479 1197.62 57.19 1189.9 59.8622Z" fill="#471513"/>
</g>
<ellipse id="Ellipse 27" cx="1047" cy="339" rx="12" ry="18" fill="#404040"/>
<ellipse id="Ellipse 28" cx="1181" cy="339" rx="12" ry="18" fill="#404040"/>
<ellipse id="Ellipse 29" cx="1181" cy="339" rx="12" ry="18" fill="#404040"/>
<g id="Subtract_2" filter="url(#filter5_d)">
<path d="M1041 423C1041 449.51 1073.68 471 1114 471C1154.32 471 1187 449.51 1187 423H1041Z" fill="#FFCCCC"/>
</g>
<rect id="Rectangle 13" x="1057" y="423" width="114" height="17" rx="5" fill="white"/>
</g>
<g id="guy">
<path id="Ellipse 16" d="M1853 289C1853 410.503 1755.4 509 1635 509C1514.6 509 1417 410.503 1417 289C1417 167.497 1514.6 69 1635 69C1755.4 69 1853 167.497 1853 289Z" fill="#F3D4C2"/>
<circle id="Ellipse 17" cx="1547" cy="137.5" r="18.5" fill="#DABCBC"/>
<circle id="Ellipse 20" cx="1547" cy="203.5" r="18.5" fill="#DABCBC"/>
<circle id="Ellipse 21" cx="1635" cy="203.5" r="18.5" fill="#DABCBC"/>
<circle id="Ellipse 22" cx="1723" cy="203.5" r="18.5" fill="#DABCBC"/>
<circle id="Ellipse 18" cx="1635" cy="137.5" r="18.5" fill="#DABCBC"/>
<circle id="Ellipse 19" cx="1723" cy="137.5" r="18.5" fill="#DABCBC"/>
<path id="Vector 2.7_5" d="M1612.91 272.977C1595.93 265.448 1547.61 254.908 1490.2 272.977C1484.89 270.762 1490.2 331.876 1495.52 337.633C1500.83 343.39 1604.94 341.176 1609.81 335.419C1614.69 329.662 1620.44 288.034 1618.67 280.505C1617.25 274.482 1614.24 272.977 1612.91 272.977Z" fill="#D3D3D3" stroke="#258D00" stroke-width="7"/>
<path id="Vector 2.8_5" d="M1774.96 272.977C1758.11 265.448 1710.16 254.908 1653.19 272.977C1647.91 270.762 1653.19 331.876 1658.46 337.633C1663.74 343.39 1767.05 341.176 1771.88 335.419C1776.72 329.662 1782.43 288.034 1780.67 280.505C1779.27 274.482 1776.28 272.977 1774.96 272.977Z" fill="#D3D3D3" stroke="#258D00" stroke-width="7"/>
<path id="Vector 4.1_5" d="M1619 307C1634.69 288.889 1648.21 299.454 1653 307" stroke="#258D00" stroke-width="7"/>
<path id="Vector 2.7_6" d="M1612.91 272.977C1595.93 265.448 1547.61 254.908 1490.2 272.977C1484.89 270.762 1490.2 331.876 1495.52 337.633C1500.83 343.39 1604.94 341.176 1609.81 335.419C1614.69 329.662 1620.44 288.034 1618.67 280.505C1617.25 274.482 1614.24 272.977 1612.91 272.977Z" fill="#D3D3D3" stroke="#258D00" stroke-width="7"/>
<path id="Vector 2.8_6" d="M1774.96 272.977C1758.11 265.448 1710.16 254.908 1653.19 272.977C1647.91 270.762 1653.19 331.876 1658.46 337.633C1663.74 343.39 1767.05 341.176 1771.88 335.419C1776.72 329.662 1782.43 288.034 1780.67 280.505C1779.27 274.482 1776.28 272.977 1774.96 272.977Z" fill="#D3D3D3" stroke="#258D00" stroke-width="7"/>
<path id="Vector 4.1_6" d="M1619 307C1634.69 288.889 1648.21 299.454 1653 307" stroke="#258D00" stroke-width="7"/>
<ellipse id="Ellipse 25" cx="1554" cy="301.5" rx="15" ry="21.5" fill="#404040"/>
<ellipse id="Ellipse 24" cx="1716" cy="301.5" rx="15" ry="21.5" fill="#404040"/>
<path id="Vector 5" d="M1554 416C1622.8 462.4 1685.67 435.333 1708.5 416" stroke="black" stroke-width="6"/>
</g>
<g id="arrows">
<path id="right" d="M817.374 200.374C824.209 193.54 824.209 182.46 817.374 175.626L706.005 64.2563C699.171 57.4221 688.09 57.4221 681.256 64.2563C674.422 71.0905 674.422 82.1709 681.256 89.0051L780.251 188L681.256 286.995C674.422 293.829 674.422 304.91 681.256 311.744C688.09 318.578 699.171 318.578 706.005 311.744L817.374 200.374ZM503 205.5L805 205.5V170.5L503 170.5V205.5Z" fill="#416ABA"/>
<path id="left" d="M490.626 447.626C483.791 454.46 483.791 465.54 490.626 472.374L601.995 583.744C608.829 590.578 619.91 590.578 626.744 583.744C633.578 576.91 633.578 565.829 626.744 558.995L527.749 460L626.744 361.005C633.578 354.171 633.578 343.091 626.744 336.256C619.91 329.422 608.829 329.422 601.995 336.256L490.626 447.626ZM805 442.5L503 442.5L503 477.5L805 477.5L805 442.5Z" fill="#416ABA"/>
</g>
</g>
<defs>
<filter id="filter0_d" x="954" y="164" width="319" height="379" filterUnits="userSpaceOnUse" color-interpolation-filters="sRGB">
<feFlood flood-opacity="0" result="BackgroundImageFix"/>
<feColorMatrix in="SourceAlpha" type="matrix" values="0 0 0 0 0 0 0 0 0 0 0 0 0 0 0 0 0 0 127 0"/>
<feOffset dy="4"/>
<feGaussianBlur stdDeviation="2"/>
<feColorMatrix type="matrix" values="0 0 0 0 0 0 0 0 0 0 0 0 0 0 0 0 0 0 0.25 0"/>
<feBlend mode="normal" in2="BackgroundImageFix" result="effect1_dropShadow"/>
<feBlend mode="normal" in="SourceGraphic" in2="effect1_dropShadow" result="shape"/>
</filter>
<filter id="filter1_d" x="868" y="0" width="491" height="358" filterUnits="userSpaceOnUse" color-interpolation-filters="sRGB">
<feFlood flood-opacity="0" result="BackgroundImageFix"/>
<feColorMatrix in="SourceAlpha" type="matrix" values="0 0 0 0 0 0 0 0 0 0 0 0 0 0 0 0 0 0 127 0"/>
<feOffset dy="4"/>
<feGaussianBlur stdDeviation="2"/>
<feColorMatrix type="matrix" values="0 0 0 0 0 0 0 0 0 0 0 0 0 0 0 0 0 0 0.25 0"/>
<feBlend mode="normal" in2="BackgroundImageFix" result="effect1_dropShadow"/>
<feBlend mode="normal" in="SourceGraphic" in2="effect1_dropShadow" result="shape"/>
</filter>
<filter id="filter2_d" x="1037" y="423" width="154" height="56" filterUnits="userSpaceOnUse" color-interpolation-filters="sRGB">
<feFlood flood-opacity="0" result="BackgroundImageFix"/>
<feColorMatrix in="SourceAlpha" type="matrix" values="0 0 0 0 0 0 0 0 0 0 0 0 0 0 0 0 0 0 127 0"/>
<feOffset dy="4"/>
<feGaussianBlur stdDeviation="2"/>
<feColorMatrix type="matrix" values="0 0 0 0 0 0 0 0 0 0 0 0 0 0 0 0 0 0 0.25 0"/>
<feBlend mode="normal" in2="BackgroundImageFix" result="effect1_dropShadow"/>
<feBlend mode="normal" in="SourceGraphic" in2="effect1_dropShadow" result="shape"/>
</filter>
<filter id="filter3_d" x="954" y="164" width="319" height="379" filterUnits="userSpaceOnUse" color-interpolation-filters="sRGB">
<feFlood flood-opacity="0" result="BackgroundImageFix"/>
<feColorMatrix in="SourceAlpha" type="matrix" values="0 0 0 0 0 0 0 0 0 0 0 0 0 0 0 0 0 0 127 0"/>
<feOffset dy="4"/>
<feGaussianBlur stdDeviation="2"/>
<feColorMatrix type="matrix" values="0 0 0 0 0 0 0 0 0 0 0 0 0 0 0 0 0 0 0.25 0"/>
<feBlend mode="normal" in2="BackgroundImageFix" result="effect1_dropShadow"/>
<feBlend mode="normal" in="SourceGraphic" in2="effect1_dropShadow" result="shape"/>
</filter>
<filter id="filter4_d" x="868" y="0" width="491" height="358" filterUnits="userSpaceOnUse" color-interpolation-filters="sRGB">
<feFlood flood-opacity="0" result="BackgroundImageFix"/>
<feColorMatrix in="SourceAlpha" type="matrix" values="0 0 0 0 0 0 0 0 0 0 0 0 0 0 0 0 0 0 127 0"/>
<feOffset dy="4"/>
<feGaussianBlur stdDeviation="2"/>
<feColorMatrix type="matrix" values="0 0 0 0 0 0 0 0 0 0 0 0 0 0 0 0 0 0 0.25 0"/>
<feBlend mode="normal" in2="BackgroundImageFix" result="effect1_dropShadow"/>
<feBlend mode="normal" in="SourceGraphic" in2="effect1_dropShadow" result="shape"/>
</filter>
<filter id="filter5_d" x="1037" y="423" width="154" height="56" filterUnits="userSpaceOnUse" color-interpolation-filters="sRGB">
<feFlood flood-opacity="0" result="BackgroundImageFix"/>
<feColorMatrix in="SourceAlpha" type="matrix" values="0 0 0 0 0 0 0 0 0 0 0 0 0 0 0 0 0 0 127 0"/>
<feOffset dy="4"/>
<feGaussianBlur stdDeviation="2"/>
<feColorMatrix type="matrix" values="0 0 0 0 0 0 0 0 0 0 0 0 0 0 0 0 0 0 0.25 0"/>
<feBlend mode="normal" in2="BackgroundImageFix" result="effect1_dropShadow"/>
<feBlend mode="normal" in="SourceGraphic" in2="effect1_dropShadow" result="shape"/>
</filter>
</defs>
</svg>
