<svg width="391" height="403" viewBox="0 0 391 403" fill="none" xmlns="http://www.w3.org/2000/svg">
<g id="look">
<g id="Vector">
<path d="M179.874 209.608C183.401 206.096 189.121 206.095 192.65 209.605L194.247 211.194C197.776 214.704 197.778 220.396 194.251 223.908L17.0215 400.365C13.4943 403.877 7.77407 403.878 4.2451 400.368L2.64765 398.779C-0.881323 395.269 -0.88273 389.577 2.64451 386.065L179.874 209.608Z" fill="#6D6D6D"/>
<path d="M181.735 173.906C185.112 170.251 190.827 170.011 194.5 173.372L231.08 206.837C234.753 210.198 234.993 215.885 231.617 219.541L219.388 232.778C216.011 236.433 210.296 236.672 206.623 233.312L170.043 199.846C166.37 196.486 166.13 190.798 169.507 187.143L181.735 173.906Z" fill="#6D6D6D"/>
</g>
<circle id="Ellipse 6" cx="277" cy="114" r="114" fill="#0F006F"/>
<circle id="Ellipse 7" cx="277" cy="114" r="94" fill="#CEFFFC"/>
</g>
</svg>
