<svg width="551" height="536" viewBox="0 0 551 536" fill="none" xmlns="http://www.w3.org/2000/svg">
<path id="Vector" d="M184.296 431.586C184.296 433.803 181.741 435.576 178.52 435.576C174.854 435.909 172.299 434.136 172.299 431.586C172.299 429.37 174.854 427.596 178.075 427.596C181.408 427.264 184.296 429.037 184.296 431.586ZM149.748 426.599C148.97 428.816 151.192 431.365 154.524 432.03C157.413 433.138 160.745 432.03 161.412 429.813C162.078 427.596 159.968 425.047 156.635 424.05C153.747 423.274 150.525 424.382 149.748 426.599ZM198.849 424.715C195.627 425.491 193.405 427.596 193.739 430.146C194.072 432.362 196.96 433.803 200.293 433.027C203.515 432.251 205.736 430.146 205.403 427.929C205.07 425.823 202.07 424.382 198.849 424.715ZM271.945 0C117.865 0 0 116.708 0 270.434C0 393.349 77.5399 498.53 188.295 535.548C202.515 538.098 207.514 529.342 207.514 522.138C207.514 515.266 207.18 477.361 207.18 454.086C207.18 454.086 129.418 470.711 113.088 421.057C113.088 421.057 100.424 388.805 82.2056 380.492C82.2056 380.492 56.7663 363.091 83.9831 363.424C83.9831 363.424 111.644 365.64 126.863 392.019C151.192 434.801 191.961 422.498 207.847 415.183C210.402 397.45 217.623 385.147 225.621 377.832C163.523 370.96 100.869 361.983 100.869 255.361C100.869 224.882 109.311 209.587 127.085 190.08C124.197 182.876 114.755 153.172 129.974 114.824C153.191 107.62 206.625 144.749 206.625 144.749C228.843 138.542 252.727 135.328 276.389 135.328C300.051 135.328 323.935 138.542 346.152 144.749C346.152 144.749 399.586 107.509 422.804 114.824C438.023 153.283 428.58 182.876 425.692 190.08C443.466 209.697 454.353 224.992 454.353 255.361C454.353 362.315 388.922 370.85 326.823 377.832C337.043 386.588 345.708 403.213 345.708 429.259C345.708 466.61 345.375 512.828 345.375 521.916C345.375 529.12 350.485 537.876 364.593 535.327C475.682 498.53 551 393.349 551 270.434C551 116.708 426.025 0 271.945 0ZM107.978 382.265C106.534 383.374 106.867 385.923 108.756 388.029C110.533 389.802 113.088 390.578 114.532 389.137C115.977 388.029 115.643 385.48 113.755 383.374C111.977 381.6 109.422 380.825 107.978 382.265ZM95.9806 373.288C95.203 374.729 96.3139 376.502 98.5357 377.61C100.313 378.719 102.535 378.386 103.312 376.835C104.09 375.394 102.979 373.62 100.757 372.512C98.5357 371.847 96.7583 372.18 95.9806 373.288ZM131.973 412.745C130.196 414.186 130.862 417.511 133.418 419.616C135.973 422.166 139.194 422.498 140.638 420.725C142.082 419.284 141.416 415.959 139.194 413.853C136.75 411.304 133.418 410.971 131.973 412.745ZM119.309 396.452C117.532 397.561 117.532 400.442 119.309 402.991C121.087 405.541 124.086 406.649 125.53 405.541C127.308 404.1 127.308 401.218 125.53 398.669C123.975 396.12 121.087 395.011 119.309 396.452Z" fill="black"/>
</svg>
