<svg width="934" height="576" viewBox="0 0 934 576" fill="none" xmlns="http://www.w3.org/2000/svg">
<g id="comp">
<g id="laptop">
<rect id="Rectangle 7" x="115.546" width="704.283" height="461.9" rx="5" fill="#DEDEDE"/>
<rect id="Rectangle 8" x="147.184" y="27.494" width="641.007" height="406.912" rx="5" fill="#B7F4F4"/>
<path id="Rectangle 9" d="M176.071 52.1145C176.071 49.9054 177.862 48.1145 180.071 48.1145H513.208C515.417 48.1145 517.208 49.9054 517.208 52.1145V187.083C517.208 189.293 515.417 191.083 513.208 191.083H180.071C177.862 191.083 176.071 189.293 176.071 187.083V52.1145Z" fill="#58D5A8"/>
<path id="Rectangle 13" d="M550.221 52.1145C550.221 49.9054 552.012 48.1145 554.221 48.1145H752.554C754.763 48.1145 756.554 49.9054 756.554 52.1145V323.179C756.554 325.388 754.763 327.179 752.554 327.179H554.221C552.012 327.179 550.221 325.388 550.221 323.179V52.1145Z" fill="#58D5A8"/>
<path id="Rectangle 10" d="M176.071 223.952C176.071 221.743 177.862 219.952 180.071 219.952H513.208C515.417 219.952 517.208 221.743 517.208 223.952V255.819C517.208 258.028 515.417 259.819 513.208 259.819H180.071C177.862 259.819 176.071 258.028 176.071 255.819V223.952Z" fill="#58D5A8"/>
<path id="Rectangle 11" d="M176.071 291.313C176.071 289.104 177.862 287.313 180.071 287.313H513.208C515.417 287.313 517.208 289.104 517.208 291.313V323.179C517.208 325.388 515.417 327.179 513.208 327.179H180.071C177.862 327.179 176.071 325.388 176.071 323.179V291.313Z" fill="#58D5A8"/>
<path id="Rectangle 12" d="M176.071 366.921C176.071 364.712 177.862 362.921 180.071 362.921H513.208C515.417 362.921 517.208 364.712 517.208 366.921V398.788C517.208 400.997 515.417 402.788 513.208 402.788H180.071C177.862 402.788 176.071 400.997 176.071 398.788V366.921Z" fill="#58D5A8"/>
<path id="Rectangle 14" d="M550.221 366.921C550.221 364.712 552.012 362.921 554.221 362.921H752.554C754.763 362.921 756.554 364.712 756.554 366.921V394.664C756.554 396.873 754.763 398.664 752.554 398.664H554.221C552.012 398.664 550.221 396.873 550.221 394.664V366.921Z" fill="#58D5A8"/>
<path id="Rectangle 23" d="M118.932 472.897H816.159L934 576H0L118.932 472.897Z" fill="#DEDEDE"/>
</g>
<g id="glass">
<g id="Vector">
<path d="M170.37 177.013C172.338 175.052 175.53 175.051 177.499 177.011L178.391 177.898C180.36 179.858 180.361 183.037 178.393 184.998L79.4981 283.529C77.5299 285.49 74.338 285.491 72.3688 283.531L71.4774 282.643C69.5082 280.683 69.5074 277.505 71.4756 275.544L170.37 177.013Z" fill="#6D6D6D"/>
<path d="M171.409 157.077C173.293 155.036 176.482 154.903 178.532 156.779L198.943 175.466C200.993 177.342 201.127 180.518 199.243 182.559L192.419 189.951C190.535 191.992 187.346 192.125 185.296 190.249L164.885 171.562C162.835 169.686 162.701 166.51 164.585 164.469L171.409 157.077Z" fill="#6D6D6D"/>
</g>
<ellipse id="Ellipse 4" cx="224.417" cy="123.636" rx="63.5833" ry="63.6364" fill="#0F006F"/>
<ellipse id="Ellipse 5" cx="224.417" cy="123.636" rx="52.2292" ry="52.2727" fill="#CEFFFC"/>
</g>
</g>
</svg>
