<svg width="645" height="398" viewBox="0 0 645 398" fill="none" xmlns="http://www.w3.org/2000/svg">
<g id="sun">
<g id="Component 10">
<path id="sun-out" d="M330.723 94.0608C335.017 73.1108 364.983 73.1108 369.277 94.0608V94.0608C372.276 108.694 389.898 114.752 401.233 105.023L406.083 100.86C421.467 87.6555 443.724 105.502 434.269 123.436V123.436C427.383 136.496 437.969 151.942 452.629 150.197L456.44 149.743C476.176 147.394 484.157 174.38 466.317 183.143V183.143C453.146 189.612 453.146 208.388 466.317 214.857V214.857C484.157 223.62 476.176 250.606 456.44 248.257L452.629 247.803C437.969 246.058 427.383 261.504 434.269 274.564V274.564C443.724 292.498 421.467 310.344 406.083 297.14L401.233 292.977C389.898 283.248 372.276 289.306 369.277 303.939V303.939C364.983 324.889 335.017 324.889 330.723 303.939V303.939C327.724 289.306 310.102 283.248 298.767 292.977L293.917 297.14C278.533 310.344 256.276 292.498 265.731 274.564V274.564C272.617 261.504 262.031 246.058 247.371 247.803L243.56 248.257C223.824 250.606 215.843 223.62 233.683 214.857V214.857C246.854 208.388 246.854 189.612 233.683 183.143V183.143C215.843 174.38 223.824 147.394 243.56 149.743L247.371 150.197C262.031 151.942 272.617 136.496 265.731 123.436V123.436C256.276 105.502 278.533 87.6555 293.917 100.86L298.767 105.023C310.102 114.752 327.724 108.694 330.723 94.0608V94.0608Z" fill="#FF6E1D"/>
<ellipse id="sun-in" cx="350" cy="193.75" rx="64.6765" ry="64.75" fill="#FFD337"/>
<g id="cloud2" filter="url(#filter0_d)">
<path d="M382.005 124.31C385.752 99.4238 417.055 80 455.117 80C495.682 80 528.571 102.063 528.606 129.289C537.472 124.516 548.364 121.703 560.137 121.703C589.91 121.703 614.046 139.691 614.046 161.88C614.046 162.309 614.037 162.736 614.019 163.161C629.567 167.391 641 181.609 641 198.497V221.383C641 241.606 624.606 258 604.383 258H321.617C301.394 258 285 241.606 285 221.383V198.497C285 179.999 298.716 164.705 316.533 162.23C316.532 162.114 316.531 161.997 316.531 161.88C316.531 139.691 338.162 121.703 364.846 121.703C370.889 121.703 376.672 122.625 382.005 124.31Z" fill="white"/>
</g>
</g>
<g id="cloud1" filter="url(#filter1_d)">
<path d="M101.005 191.31C104.752 166.424 136.055 147 174.117 147C214.682 147 247.571 169.063 247.606 196.289C256.472 191.516 267.364 188.703 279.137 188.703C308.91 188.703 333.046 206.691 333.046 228.88C333.046 229.309 333.037 229.736 333.019 230.161C348.567 234.391 360 248.609 360 265.497V288.383C360 308.606 343.606 325 323.383 325H40.6171C20.3941 325 4 308.606 4 288.383V265.497C4 246.999 17.7164 231.705 35.5332 229.23C35.5319 229.114 35.5314 228.997 35.5314 228.88C35.5314 206.691 57.1625 188.703 83.8457 188.703C89.8886 188.703 95.6725 189.625 101.005 191.31Z" fill="white"/>
</g>
</g>
<defs>
<filter id="filter0_d" x="281" y="80" width="364" height="190" filterUnits="userSpaceOnUse" color-interpolation-filters="sRGB">
<feFlood flood-opacity="0" result="BackgroundImageFix"/>
<feColorMatrix in="SourceAlpha" type="matrix" values="0 0 0 0 0 0 0 0 0 0 0 0 0 0 0 0 0 0 127 0"/>
<feOffset dy="8"/>
<feGaussianBlur stdDeviation="2"/>
<feColorMatrix type="matrix" values="0 0 0 0 0 0 0 0 0 0 0 0 0 0 0 0 0 0 0.25 0"/>
<feBlend mode="normal" in2="BackgroundImageFix" result="effect1_dropShadow"/>
<feBlend mode="normal" in="SourceGraphic" in2="effect1_dropShadow" result="shape"/>
</filter>
<filter id="filter1_d" x="0" y="147" width="364" height="190" filterUnits="userSpaceOnUse" color-interpolation-filters="sRGB">
<feFlood flood-opacity="0" result="BackgroundImageFix"/>
<feColorMatrix in="SourceAlpha" type="matrix" values="0 0 0 0 0 0 0 0 0 0 0 0 0 0 0 0 0 0 127 0"/>
<feOffset dy="8"/>
<feGaussianBlur stdDeviation="2"/>
<feColorMatrix type="matrix" values="0 0 0 0 0 0 0 0 0 0 0 0 0 0 0 0 0 0 0.25 0"/>
<feBlend mode="normal" in2="BackgroundImageFix" result="effect1_dropShadow"/>
<feBlend mode="normal" in="SourceGraphic" in2="effect1_dropShadow" result="shape"/>
</filter>
</defs>
</svg>
