<svg width="1920" height="717" viewBox="0 0 1920 717" fill="none" xmlns="http://www.w3.org/2000/svg">
<g id="yard">
<g clip-path="url(#clip0)">
<path id="h1" d="M1171 462C1171 456.477 1175.48 452 1181 452H1527C1532.52 452 1537 456.477 1537 462V471C1537 476.523 1532.52 481 1527 481H1181C1175.48 481 1171 476.523 1171 471V462Z" fill="#139CAE"/>
<g id="h3">
<path id="Rectangle 30" d="M1221 53C1221 47.4772 1225.48 43 1231 43H1251C1256.52 43 1261 47.4772 1261 53V122C1261 127.523 1256.52 132 1251 132H1231C1225.48 132 1221 127.523 1221 122V53Z" fill="#FF7373"/>
<path id="Rectangle 31" d="M1221 106C1221 104.895 1221.9 104 1223 104H1259C1260.1 104 1261 104.895 1261 106V112C1261 113.105 1260.1 114 1259 114H1223C1221.9 114 1221 113.105 1221 112V106Z" fill="#FFACAC"/>
<path id="Polygon 2" d="M1342.6 26.898C1350.05 20.6047 1360.95 20.6047 1368.4 26.898L1505.55 142.72C1519.79 154.747 1511.29 178 1492.65 178H1218.35C1199.71 178 1191.21 154.747 1205.45 142.72L1342.6 26.898Z" fill="#139CAE"/>
<path id="Polygon 1" d="M1354.5 45L1509.09 175.5H1199.91L1354.5 45Z" fill="#FFACAC"/>
<path id="Rectangle 32" d="M1221 90C1221 88.8954 1221.9 88 1223 88H1259C1260.1 88 1261 88.8954 1261 90V94C1261 95.1046 1260.1 96 1259 96H1223C1221.9 96 1221 95.1046 1221 94V90Z" fill="#FFACAC"/>
<path id="Rectangle 33" d="M1221 72C1221 70.8954 1221.9 70 1223 70H1259C1260.1 70 1261 70.8954 1261 72V75C1261 76.1046 1260.1 77 1259 77H1223C1221.9 77 1221 76.1046 1221 75V72Z" fill="#FFACAC"/>
<path id="Rectangle 34" d="M1221 52C1221 50.8954 1221.9 50 1223 50H1259C1260.1 50 1261 50.8954 1261 52V57C1261 58.1046 1260.1 59 1259 59H1241H1223C1221.9 59 1221 58.1046 1221 57V52Z" fill="#FFACAC"/>
<rect id="Rectangle 35" x="1212" y="26" width="59" height="17" rx="8.5" fill="#F85050"/>
<rect id="Rectangle 43" x="1416" y="150" width="39" height="14" rx="5" fill="#9D6D53"/>
</g>
<g id="h2">
<rect id="Rectangle 29" x="1198" y="176" width="313" height="276" rx="10" fill="#FFACAC"/>
<path id="Rectangle 36" d="M1396 300.5H1478C1482.14 300.5 1485.5 303.858 1485.5 308V442C1485.5 446.142 1482.14 449.5 1478 449.5H1396C1391.86 449.5 1388.5 446.142 1388.5 442V308C1388.5 303.858 1391.86 300.5 1396 300.5Z" fill="#996633" fill-opacity="0.69" stroke="#97632F" stroke-width="5"/>
<rect id="Rectangle 42" x="1221" y="188" width="152" height="98" rx="10" fill="#D9F3FE"/>
<rect id="Rectangle 44" x="1455" y="176" width="42" height="13" rx="5" fill="#9D6D53"/>
<rect id="Rectangle 45" x="1198" y="388" width="40" height="15" rx="5" fill="#9D6D53"/>
<rect id="Rectangle 46" x="1198" y="348" width="40" height="15" rx="5" fill="#9D6D53"/>
<rect id="Rectangle 47" x="1261" y="376" width="40" height="12" rx="5" fill="#9D6D53"/>
</g>
<path id="trunk" fill-rule="evenodd" clip-rule="evenodd" d="M190.939 268.445C189.397 267.839 187.619 268.581 186.966 270.104L179.975 286.427C179.323 287.95 180.044 289.676 181.586 290.283L232.512 310.33C233.113 310.566 233.75 310.598 234.342 310.458L249.192 354.865C249.344 355.32 249.385 355.805 249.311 356.279L238 428.75L228.151 477.405C227.775 479.263 229.196 481 231.092 481H314.446C316.549 481 318 478.891 317.247 476.927L287.959 400.503C287.828 400.16 287.761 399.797 287.761 399.43V320.821C287.761 320.004 288.094 319.222 288.684 318.656L299.937 307.865L345.861 303.059C347.069 302.933 348.027 302.106 348.379 301.026C349.319 301.184 350.322 300.92 351.055 300.23L365.678 286.455C366.885 285.319 366.901 283.46 365.715 282.303L356.869 273.672C355.683 272.515 353.744 272.498 352.538 273.634L343.552 282.099C343.49 282.102 343.428 282.107 343.365 282.114L273.907 289.769H243.343C243.027 289.209 242.52 288.75 241.866 288.492L190.939 268.445Z" fill="url(#paint0_linear)"/>
<path id="bush2" fill-rule="evenodd" clip-rule="evenodd" d="M286.158 46.8023C284.296 25.1662 257.112 8 223.851 8C189.383 8 161.442 26.434 161.442 49.1736C161.442 49.2795 161.443 49.3854 161.444 49.4911C130.19 52.4164 105.866 75.1812 105.866 102.831C105.866 111.803 108.427 120.262 112.956 127.694C95.5002 139.55 84 159.791 84 182.769C84 219.297 113.063 248.909 148.914 248.909C162.174 248.909 174.504 244.859 184.78 237.906C192.531 254.958 210.167 266.868 230.684 266.868C244.402 266.868 256.833 261.543 265.882 252.917C276.354 259.748 289.411 263.802 303.57 263.802C318.096 263.802 331.462 259.536 342.067 252.381C351.051 269.382 368.287 280.884 388.073 280.884C417.132 280.884 440.688 256.077 440.688 225.475C440.688 200.748 425.307 179.804 404.071 172.674C415.165 165.241 422.011 155.041 422.011 143.785C422.011 123.311 399.358 106.326 369.685 103.146C374.582 97.2696 377.368 90.5189 377.368 83.3389C377.368 60.5994 349.426 42.1653 314.959 42.1653C304.57 42.1653 294.775 43.8399 286.158 46.8023ZM213.214 173.089L213.142 173.115C213.132 173.039 213.121 172.963 213.109 172.888C213.184 172.941 213.26 172.993 213.335 173.046L213.214 173.089Z" fill="#1CB07C"/>
<path id="bush1" fill-rule="evenodd" clip-rule="evenodd" d="M280.293 122.689C278.789 105.212 256.831 91.3462 229.965 91.3462C202.123 91.3462 179.554 106.236 179.554 124.604C179.554 124.69 179.554 124.775 179.555 124.861C154.31 127.224 134.662 145.612 134.662 167.946C134.662 175.193 136.731 182.026 140.389 188.029C126.289 197.605 117 213.955 117 232.516C117 262.022 140.476 285.941 169.435 285.941C180.145 285.941 190.105 282.669 198.405 277.053C204.666 290.827 218.912 300.447 235.484 300.447C246.565 300.447 256.606 296.146 263.916 289.178C272.374 294.696 282.921 297.971 294.358 297.971C306.091 297.971 316.888 294.524 325.454 288.745C332.711 302.478 346.633 311.769 362.616 311.769C386.088 311.769 405.116 291.731 405.116 267.012C405.116 247.039 392.692 230.121 375.538 224.362C384.499 218.358 390.029 210.119 390.029 201.027C390.029 184.488 371.731 170.769 347.762 168.201C351.718 163.454 353.968 158.001 353.968 152.201C353.968 133.833 331.399 118.943 303.557 118.943C295.166 118.943 287.253 120.296 280.293 122.689ZM221.471 224.662C221.419 224.681 221.367 224.699 221.315 224.718L221.308 224.672L221.288 224.535C221.349 224.577 221.41 224.62 221.471 224.662Z" fill="#00CC00"/>
<g id="bike">
<path id="Vector" d="M645.556 256.872L636.068 313.983L636.114 314.121L640.027 313.697L668.011 268.813L690.117 293.821L640.785 314.721L640.717 314.833L640.457 314.863L637.276 316.214L675.725 351.386L689.343 341.947L690.229 330.338L639.587 317.618L639.854 316.468L691.453 329.435L690.448 342.598L671.822 355.508L643.617 376.324L643.472 375.157L637.574 379.24L620.815 372.033L620.654 372.728L619.516 372.428L619.718 371.56L594.826 360.858L630.37 317.828L634.501 316.079L634.567 315.791L634.642 315.469L574.079 322.05L592.907 271.162L633.378 312.595L634.832 313.926L617.34 262.066L645.556 256.872ZM635.249 311.636L644.101 258.328L618.845 262.991L635.249 311.636ZM688.124 293.358L668.149 270.766L641.844 312.968L688.124 293.358ZM633.55 314.404L632.509 313.453L593.332 273.332L575.815 320.684L633.55 314.404ZM636.654 319.487L635.758 316.825L635.463 316.951L621.122 370.892L637.44 377.918L643.315 373.83L636.654 319.487ZM674.613 351.964L637.363 317.865L637.823 319.262L644.388 373.055L671.15 354.504L674.613 351.964ZM620.008 370.415L634.103 317.531L631.076 318.816L596.723 360.408L620.008 370.415Z" fill="#535461"/>
<path id="w-right" d="M889.017 331.851L880.872 371.603L880.919 371.742L884.864 371.319L920.723 334.956L935.353 351.368L885.642 372.321L885.573 372.433L885.311 372.463L882.105 373.818L920.906 409.186L934.623 399.715L935.505 388.054L884.425 375.203L884.693 374.048L936.732 387.122L935.738 400.364L916.963 413.321L888.521 434.219L888.373 433.047L882.43 437.143L865.571 429.904L865.408 430.603L864.261 430.3L864.464 429.428L839.355 418.655L875.127 375.477L879.29 373.724L879.357 373.435L879.432 373.112L818.377 379.668L837.315 328.564L878.161 370.225L879.628 371.563L861.941 319.455L881.64 332.876L889.017 331.851ZM880.044 369.22L889.017 331.851L863.459 320.337L880.044 369.22ZM933.346 350.914L924.884 334.076L886.7 370.571L933.346 350.914ZM878.338 372.006L877.288 371.05L837.748 330.71L820.128 378.262L878.338 372.006ZM881.473 377.116L880.566 374.44L880.269 374.566L865.859 428.742L882.322 435.803L888.241 431.702L881.473 377.116ZM919.793 409.785L882.202 375.496L882.667 376.9L889.336 430.946L916.296 412.338L919.793 409.785ZM864.733 428.268L878.901 375.137L875.851 376.424L841.25 418.176L864.733 428.268Z" fill="#535461"/>
<path id="Vector_2" d="M792.911 390.31L811.873 420.301L821.37 414.297L802.409 384.306L792.911 390.31Z" fill="#0D7190"/>
<path id="Vector_3" opacity="0.1" d="M785.059 417.032C786.283 416.506 786.906 416.182 786.906 416.182C786.906 416.182 807.252 414.307 803.416 430.821C803.416 430.821 802.392 431.075 800.765 431.519C799.836 428.885 798.23 426.513 796.098 424.632C793.967 422.751 791.381 421.423 788.589 420.775L786.588 420.31L785.059 417.032Z" fill="black"/>
<path id="wheel-left" d="M618.665 384.087C624.768 385.512 631.037 386.097 637.302 385.827C640.532 385.689 643.75 385.32 646.93 384.724C663.864 381.582 679.058 372.235 689.573 358.491C700.089 344.747 705.178 327.582 703.857 310.317C702.535 293.052 694.897 276.914 682.42 265.024C669.943 253.135 653.513 246.34 636.309 245.953C619.105 245.566 602.35 251.615 589.285 262.93C576.22 274.244 567.773 290.021 565.578 307.207C563.384 324.392 567.598 341.767 577.405 355.968C587.212 370.17 601.916 380.189 618.671 384.088L618.665 384.087ZM646.628 264.751C658.292 267.465 668.669 274.116 676.038 283.6C683.406 293.084 687.321 304.829 687.133 316.885C686.945 328.942 682.665 340.583 675.004 349.878C667.343 359.172 656.762 365.559 645.019 367.978C642.031 368.595 638.996 368.946 635.948 369.027C628.498 369.232 621.094 367.838 614.23 364.937C607.367 362.036 601.2 357.695 596.141 352.203C591.082 346.711 587.247 340.194 584.89 333.085C582.534 325.977 581.71 318.44 582.474 310.976C583.238 303.512 585.572 296.292 589.321 289.798C593.07 283.303 598.148 277.682 604.217 273.309C610.285 268.935 617.206 265.91 624.518 264.434C631.829 262.959 639.365 263.066 646.622 264.749L646.628 264.751Z" fill="#535461"/>
<path id="Vector_4" d="M709.892 486.091C709.892 486.091 641.208 472.582 641.867 463.435C642.527 454.287 711.199 474.158 711.199 474.158C711.199 474.158 715.464 481.026 709.892 486.091Z" fill="#535461"/>
<path id="Vector_5" opacity="0.05" d="M709.892 486.091C709.892 486.091 641.208 472.582 641.867 463.435C642.527 454.287 711.199 474.158 711.199 474.158C711.199 474.158 715.464 481.026 709.892 486.091Z" fill="black"/>
<path id="Vector_6" d="M772.35 462.904L784.039 465.619L808.023 362.368L796.334 359.653L772.35 462.904Z" fill="#0D7190"/>
<path id="Vector_7" opacity="0.1" d="M772.35 462.904L773.965 455.955C777.956 456.409 781.999 457.048 785.849 457.827L784.039 465.619L772.35 462.904Z" fill="black"/>
<path id="Vector_8" d="M771.513 472.297C773.145 472.814 774.747 473.425 776.31 474.126C782.443 476.87 798.029 483.257 803.421 479.813C810.18 475.52 810.62 465.356 796.359 460.577C782.097 455.799 756.168 453.684 749.857 458.087C749.852 458.111 757.171 467.762 771.513 472.297Z" fill="#535461"/>
<path id="Vector_9" d="M781.825 435.376L647.366 445.165L645.467 434.587L784.31 420.511L781.825 435.376Z" fill="#0D7191"/>
<path id="Vector_10" d="M759.171 364.954L647.845 433.984L644.523 425.39L751.935 354.473L759.171 364.954Z" fill="#0D7191"/>
<path id="Vector_11" opacity="0.1" d="M636.134 368.693C639.131 368.606 642.117 368.251 645.057 367.632L646.893 384.249C643.764 384.848 640.599 385.22 637.422 385.364L636.134 368.693Z" fill="black"/>
<path id="Vector_12" d="M631.018 320.004L638.337 317.82L654.224 454.017L654.937 460.112L642.921 463.638L642.185 454.74L631.018 320.004Z" fill="#0D7191"/>
<path id="Vector_13" opacity="0.1" d="M641.843 454.609L654.187 453.936L654.946 460.076L642.639 463.573L641.843 454.609Z" fill="black"/>
<path id="Vector_14" d="M712.658 460.591L644.839 468.19C644.839 468.19 634.188 464.226 640.499 455.754L708.111 451.092C708.111 451.092 717.932 452.38 712.658 460.591Z" fill="#535461"/>
<path id="wheel-right" d="M810.436 372.731C810.351 383.57 812.789 394.273 817.556 403.988C819.325 407.597 821.398 411.047 823.755 414.3C832.819 426.783 845.76 435.883 860.548 440.17C875.336 444.457 891.132 443.689 905.459 437.986C919.786 432.283 931.831 421.969 939.705 408.662C947.579 395.355 950.835 379.808 948.964 364.461C947.092 349.114 941.26 341.473 930.425 330.505C919.591 319.537 913.092 335.184 897.826 333.182C882.56 331.181 858.327 305.007 845.014 312.808C831.701 320.609 821.334 332.623 815.542 346.965C814.184 350.343 813.089 353.821 812.264 357.367C811.09 362.406 810.477 367.559 810.436 372.731ZM888.396 356.861C898.885 359.309 912.046 330.098 919.222 338.152C926.399 346.207 930.926 356.291 932.189 367.033C933.452 377.775 931.389 388.654 926.281 398.19C921.172 407.727 913.266 415.458 903.638 420.332C894.01 425.207 883.126 426.988 872.468 425.435C861.809 423.881 851.892 419.067 844.066 411.648C836.239 404.229 830.883 394.565 828.726 383.969C826.568 373.373 827.714 362.361 832.007 352.429C836.91 341.11 845.607 331.869 856.583 326.312C867.559 320.755 876.436 354.08 888.396 356.861Z" fill="#535461"/>
<path id="Vector_15" opacity="0.1" d="M812.261 357.386C813.109 353.737 814.235 350.159 815.628 346.682C821.182 348.405 826.881 350.356 832.463 352.279C829.549 359.058 828.021 366.355 827.97 373.732C822.121 373.627 816.166 373.441 810.372 373.18C810.421 367.864 811.054 362.567 812.261 357.386V357.386Z" fill="black"/>
<path id="Vector_16" opacity="0.1" d="M793.619 371.342L796.334 359.653L808.023 362.368L805.725 372.26C801.521 372.008 797.448 371.704 793.619 371.342Z" fill="black"/>
<path id="Vector_17" d="M875.687 372.127C875.687 372.127 772.406 375.51 766.839 363.772C761.273 352.033 756.009 336.863 781.627 337.836C807.244 338.81 878.397 368.782 878.397 368.782L875.687 372.127Z" fill="#0D7191"/>
<path id="Vector_18" opacity="0.1" d="M817.827 404.133L832.617 395.8C834.132 399.075 835.983 402.184 838.14 405.077L823.992 414.329C821.65 411.113 819.587 407.701 817.827 404.133V404.133Z" fill="black"/>
<path id="Vector_19" d="M877.174 378.468L788.02 436.772L789.765 418.872L875.112 370.766L877.174 378.468Z" fill="#0D7191"/>
<path id="Vector_20" opacity="0.1" d="M880.61 365.883C876.575 364.946 872.545 367.457 871.607 371.492C870.67 375.526 873.181 379.557 877.216 380.494C881.251 381.431 885.281 378.92 886.218 374.886C887.156 370.851 884.645 366.82 880.61 365.883Z" fill="black"/>
<path id="Vector_21" d="M881.585 366.109C877.55 365.172 873.519 367.683 872.582 371.718C871.645 375.753 874.156 379.783 878.191 380.72C882.225 381.658 886.256 379.147 887.193 375.112C888.13 371.077 885.619 367.047 881.585 366.109Z" fill="#535461"/>
<path id="Vector_22" opacity="0.1" d="M637.094 309.318C633.059 308.38 628.978 311.11 627.978 315.413C626.978 319.717 629.439 323.966 633.473 324.903C637.508 325.84 641.589 323.111 642.589 318.807C643.589 314.504 641.128 310.255 637.094 309.318Z" fill="black"/>
<path id="Vector_23" d="M636.119 309.091C632.084 308.154 628.054 310.665 627.117 314.7C626.18 318.735 628.691 322.765 632.725 323.702C636.76 324.64 640.791 322.129 641.728 318.094C642.665 314.059 640.154 310.029 636.119 309.091Z" fill="#535461"/>
<path id="Vector_24" opacity="0.1" d="M767.619 339.637C759.28 337.7 751.001 342.671 749.127 350.741C747.252 358.81 752.492 366.922 760.831 368.859C769.169 370.796 777.448 365.824 779.323 357.755C781.197 349.685 775.957 341.574 767.619 339.637Z" fill="black"/>
<path id="Vector_25" d="M766.645 339.41C758.307 337.474 750.027 342.445 748.153 350.514C746.279 358.584 751.519 366.696 759.857 368.632C768.195 370.569 776.475 365.598 778.349 357.529C780.223 349.459 774.983 341.347 766.645 339.41Z" fill="#535461"/>
<path id="Vector_26" d="M766.871 356.071L766.877 356.068C768.91 355.175 769.835 352.803 768.941 350.769L760.87 332.393C759.976 330.359 757.604 329.435 755.571 330.328L755.565 330.331C753.532 331.224 752.607 333.596 753.501 335.63L761.572 354.006C762.465 356.04 764.838 356.964 766.871 356.071Z" fill="#009688"/>
<path id="Vector_27" d="M748.103 333.05L782.195 340.969L784.458 331.229L750.366 323.31L748.103 333.05Z" fill="#009688"/>
<path id="Vector_28" opacity="0.1" d="M748.103 333.05L782.195 340.969L784.458 331.229L750.366 323.31L748.103 333.05Z" fill="black"/>
</g>
<rect id="grass" y="481" width="1920" height="260" rx="4" fill="#039300"/>
</g>
</g>
<defs>
<linearGradient id="paint0_linear" x1="258.891" y1="481.139" x2="250.55" y2="305.685" gradientUnits="userSpaceOnUse">
<stop stop-color="#602E00"/>
<stop offset="1" stop-color="#9D5614" stop-opacity="0.8"/>
</linearGradient>
<clipPath id="clip0">
<path d="M0 0H1920V717H0V0Z" fill="white"/>
</clipPath>
</defs>
</svg>
