<svg width="64" height="64" viewBox="0 0 64 64" fill="none" xmlns="http://www.w3.org/2000/svg">
<path id="&#195;&#132;" d="M37.1914 44.5078C36.3242 41.8594 35.4102 39.4219 34.4492 37.1953C33.4883 34.9453 32.5391 32.9297 31.6016 31.1484C30.6875 29.3438 29.8086 27.7734 28.9648 26.4375C28.1445 25.0781 27.4414 23.9648 26.8555 23.0977C24.6758 26.8008 22.7188 30.4219 20.9844 33.9609C19.2734 37.4766 17.75 40.9922 16.4141 44.5078C18.2891 44.7188 20.0938 44.8945 21.8281 45.0352C23.5625 45.1523 25.2852 45.2109 26.9961 45.2109C28.6836 45.2109 30.3594 45.1523 32.0234 45.0352C33.7109 44.8945 35.4336 44.7188 37.1914 44.5078ZM61.168 63.8086C61.1211 63.8086 61.0742 63.7969 61.0273 63.7734C60.9805 63.7734 60.9336 63.75 60.8867 63.7031C58.7539 63.375 56.6445 63.1406 54.5586 63C52.4961 62.8594 50.4336 62.7891 48.3711 62.7891C46.332 62.7891 44.3164 62.8594 42.3242 63C40.3555 63.1406 38.3867 63.375 36.418 63.7031C36.3711 63.75 36.3242 63.7734 36.2773 63.7734C36.2305 63.7969 36.1836 63.8086 36.1367 63.8086C35.6211 63.8086 35.1758 63.6094 34.8008 63.2109C34.4492 62.8125 34.2734 62.3789 34.2734 61.9102C34.2734 61.4883 34.4141 61.1016 34.6953 60.75C35 60.3984 35.3867 60.1875 35.8555 60.1172C36.793 59.9297 37.7422 59.7891 38.7031 59.6953C39.6641 59.5781 40.6484 59.4609 41.6562 59.3438C41.5391 58.8984 41.3984 58.3477 41.2344 57.6914C41.0703 57.0117 40.8477 56.2148 40.5664 55.3008C40.3086 54.3867 39.9922 53.332 39.6172 52.1367C39.2656 50.918 38.8438 49.5469 38.3516 48.0234C36.3594 48.3047 34.4375 48.5273 32.5859 48.6914C30.7344 48.832 28.8711 48.9023 26.9961 48.9023C25.0977 48.9023 23.1758 48.832 21.2305 48.6914C19.2852 48.5273 17.2461 48.3047 15.1133 48.0234C13.8711 51.7266 12.8633 55.3945 12.0898 59.0273C13.543 59.0742 14.9961 59.1914 16.4492 59.3789C17.9258 59.543 19.4258 59.7891 20.9492 60.1172C21.3711 60.1875 21.7109 60.3984 21.9688 60.75C22.25 61.1016 22.3906 61.4883 22.3906 61.9102C22.3906 62.4492 22.1797 62.8945 21.7578 63.2461C21.3594 63.6211 20.9375 63.8086 20.4922 63.8086C20.4219 63.8086 20.3633 63.7852 20.3164 63.7383C20.2695 63.7148 20.2109 63.7031 20.1406 63.7031C18.5938 63.375 17.0703 63.1289 15.5703 62.9648C14.0938 62.8008 12.6172 62.7188 11.1406 62.7188C9.6875 62.7188 8.25781 62.8008 6.85156 62.9648C5.44531 63.1289 4.01562 63.375 2.5625 63.7031C2.49219 63.7031 2.43359 63.7148 2.38672 63.7383C2.33984 63.7852 2.28125 63.8086 2.21094 63.8086C1.67188 63.8086 1.22656 63.6211 0.875 63.2461C0.523438 62.8711 0.347656 62.4258 0.347656 61.9102C0.347656 61.4883 0.476562 61.1133 0.734375 60.7852C0.992188 60.457 1.34375 60.2344 1.78906 60.1172C2.84375 59.8594 3.89844 59.6602 4.95312 59.5195C6.03125 59.3789 7.13281 59.2617 8.25781 59.168C9.05469 55.3008 10.0977 51.4336 11.3867 47.5664C12.6758 43.6992 14.2109 39.7969 15.9922 35.8594C17.7969 31.8984 19.8594 27.8789 22.1797 23.8008C24.5 19.7227 27.1133 15.5273 30.0195 11.2148C30.2305 10.9336 30.4648 10.7344 30.7227 10.6172C31.0039 10.5 31.2734 10.4414 31.5312 10.4414C31.8125 10.4414 32.082 10.5 32.3398 10.6172C32.5977 10.7109 32.8086 10.8633 32.9727 11.0742C37.8945 17.3555 42.1133 24.4805 45.6289 32.4492C49.168 40.3945 52.0742 49.3359 54.3477 59.2734C56.7383 59.4844 59.1172 59.7656 61.4844 60.1172C61.9531 60.1875 62.3281 60.3984 62.6094 60.75C62.9141 61.1016 63.0664 61.4883 63.0664 61.9102C63.0664 62.4258 62.8555 62.8711 62.4336 63.2461C62.0352 63.6211 61.6133 63.8086 61.168 63.8086ZM29.4219 6.25781C29.4219 7.00781 29.2812 7.71094 29 8.36719C28.7188 9.02344 28.332 9.59766 27.8398 10.0898C27.3477 10.582 26.7734 10.9688 26.1172 11.25C25.4609 11.5312 24.7695 11.6719 24.043 11.6719C23.293 11.6719 22.5898 11.5312 21.9336 11.25C21.2773 10.9688 20.7031 10.582 20.2109 10.0898C19.7188 9.59766 19.332 9.02344 19.0508 8.36719C18.7695 7.71094 18.6289 7.00781 18.6289 6.25781C18.6289 5.53125 18.7695 4.83984 19.0508 4.18359C19.332 3.52734 19.7188 2.95312 20.2109 2.46094C20.7031 1.96875 21.2773 1.58203 21.9336 1.30078C22.5898 1.01953 23.293 0.878906 24.043 0.878906C24.7695 0.878906 25.4609 1.01953 26.1172 1.30078C26.7734 1.58203 27.3477 1.96875 27.8398 2.46094C28.332 2.95312 28.7188 3.52734 29 4.18359C29.2812 4.83984 29.4219 5.53125 29.4219 6.25781ZM44.75 6.25781C44.75 7.00781 44.6094 7.71094 44.3281 8.36719C44.0469 9.02344 43.6602 9.59766 43.168 10.0898C42.6992 10.582 42.1367 10.9688 41.4805 11.25C40.8242 11.5312 40.1211 11.6719 39.3711 11.6719C38.6211 11.6719 37.918 11.5312 37.2617 11.25C36.6289 10.9688 36.0664 10.582 35.5742 10.0898C35.1055 9.59766 34.7305 9.02344 34.4492 8.36719C34.168 7.71094 34.0273 7.00781 34.0273 6.25781C34.0273 5.53125 34.168 4.83984 34.4492 4.18359C34.7305 3.52734 35.1055 2.95312 35.5742 2.46094C36.0664 1.96875 36.6289 1.58203 37.2617 1.30078C37.918 1.01953 38.6211 0.878906 39.3711 0.878906C40.1211 0.878906 40.8242 1.01953 41.4805 1.30078C42.1367 1.58203 42.6992 1.96875 43.168 2.46094C43.6602 2.95312 44.0469 3.52734 44.3281 4.18359C44.6094 4.83984 44.75 5.53125 44.75 6.25781Z" fill="black"/>
</svg>
