<svg width="145" height="161" viewBox="0 0 145 161" fill="none" xmlns="http://www.w3.org/2000/svg">
<g id="Book3">
<g id="Book3_2">
<path id="Union" fill-rule="evenodd" clip-rule="evenodd" d="M10 0C4.47715 0 0 4.47715 0 10V151C0 156.523 4.47715 161 10 161H26.5493H31.8662H145V0H31.8662H26.5493H10Z" fill="#45ABD7"/>
<path id="Rectangle 5" d="M10 140.545H143.5V159.5H10C5.30558 159.5 1.5 155.694 1.5 151V149.045C1.5 144.351 5.30558 140.545 10 140.545Z" fill="#E3E3E3" stroke="#0D5B87" stroke-width="3"/>
<path id="Union_2" fill-rule="evenodd" clip-rule="evenodd" d="M10 0C4.47715 0 0 4.47715 0 10V151C0 156.523 4.47715 161 10 161H26.5493H31.8662H145V0H31.8662H26.5493H10Z" fill="#D7B745"/>
<path id="Rectangle 6" d="M10 140.545H143.5V159.5H10C5.30558 159.5 1.5 155.694 1.5 151V149.045C1.5 144.351 5.30558 140.545 10 140.545Z" fill="#E3E3E3" stroke="#0D5B87" stroke-width="3"/>
<line id="Line 2" x1="13.6849" x2="13.6849" y2="139.045" stroke="#0D5B87" stroke-width="3"/>
</g>
<path id="&#195;&#132;" d="M80.1914 68.5078C79.3242 65.8594 78.4102 63.4219 77.4492 61.1953C76.4883 58.9453 75.5391 56.9297 74.6016 55.1484C73.6875 53.3438 72.8086 51.7734 71.9648 50.4375C71.1445 49.0781 70.4414 47.9648 69.8555 47.0977C67.6758 50.8008 65.7188 54.4219 63.9844 57.9609C62.2734 61.4766 60.75 64.9922 59.4141 68.5078C61.2891 68.7188 63.0938 68.8945 64.8281 69.0352C66.5625 69.1523 68.2852 69.2109 69.9961 69.2109C71.6836 69.2109 73.3594 69.1523 75.0234 69.0352C76.7109 68.8945 78.4336 68.7188 80.1914 68.5078ZM104.168 87.8086C104.121 87.8086 104.074 87.7969 104.027 87.7734C103.98 87.7734 103.934 87.75 103.887 87.7031C101.754 87.375 99.6445 87.1406 97.5586 87C95.4961 86.8594 93.4336 86.7891 91.3711 86.7891C89.332 86.7891 87.3164 86.8594 85.3242 87C83.3555 87.1406 81.3867 87.375 79.418 87.7031C79.3711 87.75 79.3242 87.7734 79.2773 87.7734C79.2305 87.7969 79.1836 87.8086 79.1367 87.8086C78.6211 87.8086 78.1758 87.6094 77.8008 87.2109C77.4492 86.8125 77.2734 86.3789 77.2734 85.9102C77.2734 85.4883 77.4141 85.1016 77.6953 84.75C78 84.3984 78.3867 84.1875 78.8555 84.1172C79.793 83.9297 80.7422 83.7891 81.7031 83.6953C82.6641 83.5781 83.6484 83.4609 84.6562 83.3438C84.5391 82.8984 84.3984 82.3477 84.2344 81.6914C84.0703 81.0117 83.8477 80.2148 83.5664 79.3008C83.3086 78.3867 82.9922 77.332 82.6172 76.1367C82.2656 74.918 81.8438 73.5469 81.3516 72.0234C79.3594 72.3047 77.4375 72.5273 75.5859 72.6914C73.7344 72.832 71.8711 72.9023 69.9961 72.9023C68.0977 72.9023 66.1758 72.832 64.2305 72.6914C62.2852 72.5273 60.2461 72.3047 58.1133 72.0234C56.8711 75.7266 55.8633 79.3945 55.0898 83.0273C56.543 83.0742 57.9961 83.1914 59.4492 83.3789C60.9258 83.543 62.4258 83.7891 63.9492 84.1172C64.3711 84.1875 64.7109 84.3984 64.9688 84.75C65.25 85.1016 65.3906 85.4883 65.3906 85.9102C65.3906 86.4492 65.1797 86.8945 64.7578 87.2461C64.3594 87.6211 63.9375 87.8086 63.4922 87.8086C63.4219 87.8086 63.3633 87.7852 63.3164 87.7383C63.2695 87.7148 63.2109 87.7031 63.1406 87.7031C61.5938 87.375 60.0703 87.1289 58.5703 86.9648C57.0938 86.8008 55.6172 86.7188 54.1406 86.7188C52.6875 86.7188 51.2578 86.8008 49.8516 86.9648C48.4453 87.1289 47.0156 87.375 45.5625 87.7031C45.4922 87.7031 45.4336 87.7148 45.3867 87.7383C45.3398 87.7852 45.2812 87.8086 45.2109 87.8086C44.6719 87.8086 44.2266 87.6211 43.875 87.2461C43.5234 86.8711 43.3477 86.4258 43.3477 85.9102C43.3477 85.4883 43.4766 85.1133 43.7344 84.7852C43.9922 84.457 44.3438 84.2344 44.7891 84.1172C45.8438 83.8594 46.8984 83.6602 47.9531 83.5195C49.0312 83.3789 50.1328 83.2617 51.2578 83.168C52.0547 79.3008 53.0977 75.4336 54.3867 71.5664C55.6758 67.6992 57.2109 63.7969 58.9922 59.8594C60.7969 55.8984 62.8594 51.8789 65.1797 47.8008C67.5 43.7227 70.1133 39.5273 73.0195 35.2148C73.2305 34.9336 73.4648 34.7344 73.7227 34.6172C74.0039 34.5 74.2734 34.4414 74.5312 34.4414C74.8125 34.4414 75.082 34.5 75.3398 34.6172C75.5977 34.7109 75.8086 34.8633 75.9727 35.0742C80.8945 41.3555 85.1133 48.4805 88.6289 56.4492C92.168 64.3945 95.0742 73.3359 97.3477 83.2734C99.7383 83.4844 102.117 83.7656 104.484 84.1172C104.953 84.1875 105.328 84.3984 105.609 84.75C105.914 85.1016 106.066 85.4883 106.066 85.9102C106.066 86.4258 105.855 86.8711 105.434 87.2461C105.035 87.6211 104.613 87.8086 104.168 87.8086ZM72.4219 30.2578C72.4219 31.0078 72.2812 31.7109 72 32.3672C71.7188 33.0234 71.332 33.5977 70.8398 34.0898C70.3477 34.582 69.7734 34.9688 69.1172 35.25C68.4609 35.5312 67.7695 35.6719 67.043 35.6719C66.293 35.6719 65.5898 35.5312 64.9336 35.25C64.2773 34.9688 63.7031 34.582 63.2109 34.0898C62.7188 33.5977 62.332 33.0234 62.0508 32.3672C61.7695 31.7109 61.6289 31.0078 61.6289 30.2578C61.6289 29.5312 61.7695 28.8398 62.0508 28.1836C62.332 27.5273 62.7188 26.9531 63.2109 26.4609C63.7031 25.9688 64.2773 25.582 64.9336 25.3008C65.5898 25.0195 66.293 24.8789 67.043 24.8789C67.7695 24.8789 68.4609 25.0195 69.1172 25.3008C69.7734 25.582 70.3477 25.9688 70.8398 26.4609C71.332 26.9531 71.7188 27.5273 72 28.1836C72.2812 28.8398 72.4219 29.5312 72.4219 30.2578ZM87.75 30.2578C87.75 31.0078 87.6094 31.7109 87.3281 32.3672C87.0469 33.0234 86.6602 33.5977 86.168 34.0898C85.6992 34.582 85.1367 34.9688 84.4805 35.25C83.8242 35.5312 83.1211 35.6719 82.3711 35.6719C81.6211 35.6719 80.918 35.5312 80.2617 35.25C79.6289 34.9688 79.0664 34.582 78.5742 34.0898C78.1055 33.5977 77.7305 33.0234 77.4492 32.3672C77.168 31.7109 77.0273 31.0078 77.0273 30.2578C77.0273 29.5312 77.168 28.8398 77.4492 28.1836C77.7305 27.5273 78.1055 26.9531 78.5742 26.4609C79.0664 25.9688 79.6289 25.582 80.2617 25.3008C80.918 25.0195 81.6211 24.8789 82.3711 24.8789C83.1211 24.8789 83.8242 25.0195 84.4805 25.3008C85.1367 25.582 85.6992 25.9688 86.168 26.4609C86.6602 26.9531 87.0469 27.5273 87.3281 28.1836C87.6094 28.8398 87.75 29.5312 87.75 30.2578Z" fill="black"/>
<path d="M0 0V-1H-1V0H0ZM145 0H146V-1H145V0ZM145 161V162H146V161H145ZM0 161H-1V162H0V161ZM0 1H145V-1H0V1ZM144 0V161H146V0H144ZM145 160H0V162H145V160ZM1 161V0H-1V161H1Z" fill="white"/>
</g>
</svg>
