<svg width="145" height="160" viewBox="0 0 145 160" fill="none" xmlns="http://www.w3.org/2000/svg">
<g id="Book2">
<path id="Union" fill-rule="evenodd" clip-rule="evenodd" d="M10 0C4.47715 0 0 4.47715 0 10V150C0 155.523 4.47715 160 10 160H26.4106H31.6475H144.242V0H31.6475H26.4106H10Z" fill="#45ABD7"/>
<path id="Rectangle 5" d="M10 139.5H142.5V158.5H10C5.30558 158.5 1.5 154.694 1.5 150V148C1.5 143.306 5.30558 139.5 10 139.5Z" fill="#E3E3E3" stroke="#0D5B87" stroke-width="3"/>
<path id="Union_2" fill-rule="evenodd" clip-rule="evenodd" d="M10 0C4.47715 0 0 4.47715 0 10V150C0 155.523 4.47715 160 10 160H26.4106H31.6475H144.242V0H31.6475H26.4106H10Z" fill="#45D7AB"/>
<path id="Rectangle 6" d="M10 139.5H142.5V158.5H10C5.30558 158.5 1.5 154.694 1.5 150V148C1.5 143.306 5.30558 139.5 10 139.5Z" fill="#E3E3E3" stroke="#0D5B87" stroke-width="3"/>
<line id="Line 2" x1="13.5" x2="13.5" y2="138" stroke="#0D5B87" stroke-width="3"/>
<path id="&#196;&#132;" d="M94.3711 91.9336C93.9961 93.3164 93.4336 94.582 92.6836 95.7305C91.9336 96.8789 91.0547 97.875 90.0469 98.7188C89.0625 99.5625 87.9727 100.219 86.7773 100.688C85.6055 101.156 84.3867 101.391 83.1211 101.391C81.7852 101.391 80.5312 101.098 79.3594 100.512C78.2109 99.9258 77.2031 99.1523 76.3359 98.1914C75.4922 97.2539 74.8125 96.1875 74.2969 94.9922C73.8047 93.7969 73.5586 92.5898 73.5586 91.3711C73.5586 90.3164 73.7109 89.2969 74.0156 88.3125C74.3438 87.3516 74.7656 86.4375 75.2812 85.5703C75.8203 84.7031 76.4414 83.8828 77.1445 83.1094C77.8711 82.3594 78.6445 81.6562 79.4648 81C78.4102 81.0703 77.3789 81.1523 76.3711 81.2461C75.3867 81.3633 74.4023 81.5156 73.418 81.7031C73.3711 81.75 73.3242 81.7734 73.2773 81.7734C73.2305 81.7969 73.1836 81.8086 73.1367 81.8086C72.6211 81.8086 72.1758 81.6094 71.8008 81.2109C71.4492 80.8125 71.2734 80.3789 71.2734 79.9102C71.2734 79.4883 71.4141 79.1016 71.6953 78.75C72 78.3984 72.3867 78.1875 72.8555 78.1172C73.793 77.9297 74.7422 77.7891 75.7031 77.6953C76.6641 77.5781 77.6484 77.4609 78.6562 77.3438C78.5391 76.8984 78.3984 76.3477 78.2344 75.6914C78.0703 75.0117 77.8477 74.2148 77.5664 73.3008C77.3086 72.3867 76.9922 71.332 76.6172 70.1367C76.2656 68.918 75.8438 67.5469 75.3516 66.0234C73.3594 66.3047 71.4375 66.5273 69.5859 66.6914C67.7344 66.832 65.8711 66.9023 63.9961 66.9023C62.0977 66.9023 60.1758 66.832 58.2305 66.6914C56.2852 66.5273 54.2461 66.3047 52.1133 66.0234C50.8711 69.7266 49.8633 73.3945 49.0898 77.0273C50.543 77.0742 51.9961 77.1914 53.4492 77.3789C54.9258 77.543 56.4258 77.7891 57.9492 78.1172C58.3711 78.1875 58.7109 78.3984 58.9688 78.75C59.25 79.1016 59.3906 79.4883 59.3906 79.9102C59.3906 80.4492 59.1797 80.8945 58.7578 81.2461C58.3594 81.6211 57.9375 81.8086 57.4922 81.8086C57.4219 81.8086 57.3633 81.7852 57.3164 81.7383C57.2695 81.7148 57.2109 81.7031 57.1406 81.7031C55.5938 81.375 54.0703 81.1289 52.5703 80.9648C51.0938 80.8008 49.6172 80.7188 48.1406 80.7188C46.6875 80.7188 45.2578 80.8008 43.8516 80.9648C42.4453 81.1289 41.0156 81.375 39.5625 81.7031C39.4922 81.7031 39.4336 81.7148 39.3867 81.7383C39.3398 81.7852 39.2812 81.8086 39.2109 81.8086C38.6719 81.8086 38.2266 81.6211 37.875 81.2461C37.5234 80.8711 37.3477 80.4258 37.3477 79.9102C37.3477 79.4883 37.4766 79.1133 37.7344 78.7852C37.9922 78.457 38.3438 78.2344 38.7891 78.1172C39.8438 77.8594 40.8984 77.6602 41.9531 77.5195C43.0312 77.3789 44.1328 77.2617 45.2578 77.168C46.0547 73.3008 47.0977 69.4336 48.3867 65.5664C49.6758 61.6992 51.2109 57.7969 52.9922 53.8594C54.7969 49.8984 56.8594 45.8789 59.1797 41.8008C61.5 37.7227 64.1133 33.5273 67.0195 29.2148C67.2305 28.9336 67.4648 28.7344 67.7227 28.6172C68.0039 28.5 68.2734 28.4414 68.5312 28.4414C68.8125 28.4414 69.082 28.5 69.3398 28.6172C69.5977 28.7109 69.8086 28.8633 69.9727 29.0742C74.8945 35.3555 79.1133 42.4805 82.6289 50.4492C86.168 58.3945 89.0742 67.3359 91.3477 77.2734C93.7383 77.4844 96.1172 77.7656 98.4844 78.1172C98.9531 78.1875 99.3281 78.3984 99.6094 78.75C99.9141 79.1016 100.066 79.4883 100.066 79.9102C100.066 80.4258 99.8555 80.8711 99.4336 81.2461C99.0352 81.6211 98.6133 81.8086 98.168 81.8086C98.1211 81.8086 98.0742 81.7969 98.0273 81.7734C97.9805 81.7734 97.9336 81.75 97.8867 81.7031C95.9883 81.4219 94.1016 81.2109 92.2266 81.0703C90.3516 80.9297 88.5 80.8359 86.6719 80.7891C86.6484 80.8359 86.6367 80.8594 86.6367 80.8594H86.6016C85.2891 81.6797 84.2695 82.582 83.543 83.5664C82.8398 84.5742 82.4883 85.8047 82.4883 87.2578C82.4883 87.8672 82.5938 88.5 82.8047 89.1562C83.0156 89.8359 83.2969 90.457 83.6484 91.0195C84.0234 91.582 84.4688 92.0391 84.9844 92.3906C85.5234 92.7656 86.1094 92.9531 86.7422 92.9531C87.2109 92.9531 87.668 92.8477 88.1133 92.6367C88.582 92.4258 89.0156 92.1797 89.4141 91.8984C89.8125 91.6172 90.1641 91.3242 90.4688 91.0195C90.7734 90.7148 90.9961 90.4688 91.1367 90.2812C91.4883 89.8594 91.9688 89.6484 92.5781 89.6484C93.1172 89.6484 93.5625 89.8477 93.9141 90.2461C94.2656 90.6445 94.4414 91.043 94.4414 91.4414C94.4414 91.5117 94.4297 91.5938 94.4062 91.6875C94.3828 91.7812 94.3711 91.8633 94.3711 91.9336ZM74.1914 62.5078C73.3242 59.8594 72.4102 57.4219 71.4492 55.1953C70.4883 52.9453 69.5391 50.9297 68.6016 49.1484C67.6875 47.3438 66.8086 45.7734 65.9648 44.4375C65.1445 43.0781 64.4414 41.9648 63.8555 41.0977C61.6758 44.8008 59.7188 48.4219 57.9844 51.9609C56.2734 55.4766 54.75 58.9922 53.4141 62.5078C55.2891 62.7188 57.0938 62.8945 58.8281 63.0352C60.5625 63.1523 62.2852 63.2109 63.9961 63.2109C65.6836 63.2109 67.3594 63.1523 69.0234 63.0352C70.7109 62.8945 72.4336 62.7188 74.1914 62.5078Z" fill="black"/>
</g>
</svg>
