<svg width="145" height="161" viewBox="0 0 145 161" fill="none" xmlns="http://www.w3.org/2000/svg">
<g id="Book1">
<path id="Union" fill-rule="evenodd" clip-rule="evenodd" d="M10 0C4.47715 0 0 4.47716 0 10V150.84C0 156.363 4.47715 160.84 10 160.84H26.5493H31.8662H145V0H31.8662H26.5493H10Z" fill="#45ABD7"/>
<path id="Rectangle 3" d="M10 140.5H143.5V159.5H10C5.30558 159.5 1.5 155.694 1.5 151V149C1.5 144.306 5.30558 140.5 10 140.5Z" fill="#E3E3E3" stroke="#0D5B87" stroke-width="3"/>
<path id="Union_2" fill-rule="evenodd" clip-rule="evenodd" d="M10 0C4.47715 0 0 4.47716 0 10V150.84C0 156.363 4.47715 160.84 10 160.84H26.5493H31.8662H145V0H31.8662H26.5493H10Z" fill="#45ABD7"/>
<path id="Rectangle 4" d="M10 140.5H143.5V159.5H10C5.30558 159.5 1.5 155.694 1.5 151V149C1.5 144.306 5.30558 140.5 10 140.5Z" fill="#E3E3E3" stroke="#0D5B87" stroke-width="3"/>
<line id="Line 1" x1="13.5" x2="13.5" y2="139" stroke="#0D5B87" stroke-width="3"/>
<path id="A" d="M72.1914 67.5078C71.3242 64.8594 70.4102 62.4219 69.4492 60.1953C68.4883 57.9453 67.5391 55.9297 66.6016 54.1484C65.6875 52.3438 64.8086 50.7734 63.9648 49.4375C63.1445 48.0781 62.4414 46.9648 61.8555 46.0977C59.6758 49.8008 57.7188 53.4219 55.9844 56.9609C54.2734 60.4766 52.75 63.9922 51.4141 67.5078C53.2891 67.7188 55.0938 67.8945 56.8281 68.0352C58.5625 68.1523 60.2852 68.2109 61.9961 68.2109C63.6836 68.2109 65.3594 68.1523 67.0234 68.0352C68.7109 67.8945 70.4336 67.7188 72.1914 67.5078ZM96.168 86.8086C96.1211 86.8086 96.0742 86.7969 96.0273 86.7734C95.9805 86.7734 95.9336 86.75 95.8867 86.7031C93.7539 86.375 91.6445 86.1406 89.5586 86C87.4961 85.8594 85.4336 85.7891 83.3711 85.7891C81.332 85.7891 79.3164 85.8594 77.3242 86C75.3555 86.1406 73.3867 86.375 71.418 86.7031C71.3711 86.75 71.3242 86.7734 71.2773 86.7734C71.2305 86.7969 71.1836 86.8086 71.1367 86.8086C70.6211 86.8086 70.1758 86.6094 69.8008 86.2109C69.4492 85.8125 69.2734 85.3789 69.2734 84.9102C69.2734 84.4883 69.4141 84.1016 69.6953 83.75C70 83.3984 70.3867 83.1875 70.8555 83.1172C71.793 82.9297 72.7422 82.7891 73.7031 82.6953C74.6641 82.5781 75.6484 82.4609 76.6562 82.3438C76.5391 81.8984 76.3984 81.3477 76.2344 80.6914C76.0703 80.0117 75.8477 79.2148 75.5664 78.3008C75.3086 77.3867 74.9922 76.332 74.6172 75.1367C74.2656 73.918 73.8438 72.5469 73.3516 71.0234C71.3594 71.3047 69.4375 71.5273 67.5859 71.6914C65.7344 71.832 63.8711 71.9023 61.9961 71.9023C60.0977 71.9023 58.1758 71.832 56.2305 71.6914C54.2852 71.5273 52.2461 71.3047 50.1133 71.0234C48.8711 74.7266 47.8633 78.3945 47.0898 82.0273C48.543 82.0742 49.9961 82.1914 51.4492 82.3789C52.9258 82.543 54.4258 82.7891 55.9492 83.1172C56.3711 83.1875 56.7109 83.3984 56.9688 83.75C57.25 84.1016 57.3906 84.4883 57.3906 84.9102C57.3906 85.4492 57.1797 85.8945 56.7578 86.2461C56.3594 86.6211 55.9375 86.8086 55.4922 86.8086C55.4219 86.8086 55.3633 86.7852 55.3164 86.7383C55.2695 86.7148 55.2109 86.7031 55.1406 86.7031C53.5938 86.375 52.0703 86.1289 50.5703 85.9648C49.0938 85.8008 47.6172 85.7188 46.1406 85.7188C44.6875 85.7188 43.2578 85.8008 41.8516 85.9648C40.4453 86.1289 39.0156 86.375 37.5625 86.7031C37.4922 86.7031 37.4336 86.7148 37.3867 86.7383C37.3398 86.7852 37.2812 86.8086 37.2109 86.8086C36.6719 86.8086 36.2266 86.6211 35.875 86.2461C35.5234 85.8711 35.3477 85.4258 35.3477 84.9102C35.3477 84.4883 35.4766 84.1133 35.7344 83.7852C35.9922 83.457 36.3438 83.2344 36.7891 83.1172C37.8438 82.8594 38.8984 82.6602 39.9531 82.5195C41.0312 82.3789 42.1328 82.2617 43.2578 82.168C44.0547 78.3008 45.0977 74.4336 46.3867 70.5664C47.6758 66.6992 49.2109 62.7969 50.9922 58.8594C52.7969 54.8984 54.8594 50.8789 57.1797 46.8008C59.5 42.7227 62.1133 38.5273 65.0195 34.2148C65.2305 33.9336 65.4648 33.7344 65.7227 33.6172C66.0039 33.5 66.2734 33.4414 66.5312 33.4414C66.8125 33.4414 67.082 33.5 67.3398 33.6172C67.5977 33.7109 67.8086 33.8633 67.9727 34.0742C72.8945 40.3555 77.1133 47.4805 80.6289 55.4492C84.168 63.3945 87.0742 72.3359 89.3477 82.2734C91.7383 82.4844 94.1172 82.7656 96.4844 83.1172C96.9531 83.1875 97.3281 83.3984 97.6094 83.75C97.9141 84.1016 98.0664 84.4883 98.0664 84.9102C98.0664 85.4258 97.8555 85.8711 97.4336 86.2461C97.0352 86.6211 96.6133 86.8086 96.168 86.8086Z" fill="black"/>
</g>
</svg>
