<svg width="968" height="832" viewBox="0 0 968 832" fill="none" xmlns="http://www.w3.org/2000/svg">
<g id="Translation">
<g id="Dude">
<g id="Ellipse" filter="url(#filter0_d)">
<path d="M617.587 417.733C617.587 494.648 557.226 557 482.766 557C408.307 557 347.946 494.648 347.946 417.733C347.946 340.819 408.307 278.467 482.766 278.467C557.226 278.467 617.587 340.819 617.587 417.733Z" fill="#FFF3E6"/>
</g>
<path id="Vector 7.5" d="M598.814 476.687C558.456 522.824 455.564 587.416 366.868 476.687L365.012 482.454L401.196 528.591L455.471 553.582H510.675C524.591 547.655 553.353 534.839 557.064 530.994C560.775 527.149 580.877 509.207 590.464 500.717L598.814 476.687Z" fill="#D7A97F"/>
<g id="Ellipse (Stroke)">
<mask id="path-3-inside-1" fill="white">
<path fill-rule="evenodd" clip-rule="evenodd" d="M482.766 549.67C552.944 549.67 610.25 490.833 610.25 417.733C610.25 344.634 552.944 285.797 482.766 285.797C412.589 285.797 355.283 344.634 355.283 417.733C355.283 490.833 412.589 549.67 482.766 549.67ZM482.766 557C557.226 557 617.587 494.648 617.587 417.733C617.587 340.819 557.226 278.467 482.766 278.467C408.307 278.467 347.946 340.819 347.946 417.733C347.946 494.648 408.307 557 482.766 557Z"/>
</mask>
<path fill-rule="evenodd" clip-rule="evenodd" d="M482.766 549.67C552.944 549.67 610.25 490.833 610.25 417.733C610.25 344.634 552.944 285.797 482.766 285.797C412.589 285.797 355.283 344.634 355.283 417.733C355.283 490.833 412.589 549.67 482.766 549.67ZM482.766 557C557.226 557 617.587 494.648 617.587 417.733C617.587 340.819 557.226 278.467 482.766 278.467C408.307 278.467 347.946 340.819 347.946 417.733C347.946 494.648 408.307 557 482.766 557Z" fill="black"/>
<path d="M602.25 417.733C602.25 486.657 548.287 541.67 482.766 541.67V557.67C557.601 557.67 618.25 495.009 618.25 417.733H602.25ZM482.766 293.797C548.287 293.797 602.25 348.81 602.25 417.733H618.25C618.25 340.458 557.601 277.797 482.766 277.797V293.797ZM363.283 417.733C363.283 348.81 417.246 293.797 482.766 293.797V277.797C407.932 277.797 347.283 340.458 347.283 417.733H363.283ZM482.766 541.67C417.246 541.67 363.283 486.657 363.283 417.733H347.283C347.283 495.009 407.932 557.67 482.766 557.67V541.67ZM609.587 417.733C609.587 490.476 552.565 549 482.766 549V565C561.887 565 625.587 498.82 625.587 417.733H609.587ZM482.766 286.467C552.565 286.467 609.587 344.99 609.587 417.733H625.587C625.587 336.647 561.887 270.467 482.766 270.467V286.467ZM355.946 417.733C355.946 344.99 412.968 286.467 482.766 286.467V270.467C403.646 270.467 339.946 336.647 339.946 417.733H355.946ZM482.766 549C412.968 549 355.946 490.476 355.946 417.733H339.946C339.946 498.82 403.646 565 482.766 565V549Z" fill="black" mask="url(#path-3-inside-1)"/>
</g>
<g id="Vector" filter="url(#filter1_d)">
<path d="M336 316.346C337.722 319.455 341.449 342.742 342.577 411.019C363.246 416.616 376.242 367.957 380.157 342.929C387.516 351.79 403.738 368.859 409.751 366.247C415.764 363.636 441.694 342.152 453.908 331.736C464.242 350.235 486.321 386.208 491.958 382.104C497.595 378 512.47 351.79 519.203 339.198C543.63 385.213 596.336 438.628 611.744 411.019C627.152 383.41 620.086 364.693 613.666 339.198C567.161 175.035 337.922 278.103 344.499 276.238C351.075 274.372 373.58 295.825 373.58 298.157C373.58 300.023 348.527 311.06 336 316.346Z" fill="#A56B46"/>
<path d="M336 316.346C337.722 319.455 341.449 342.742 342.577 411.019C363.246 416.616 376.242 367.957 380.157 342.929C387.516 351.79 403.738 368.859 409.751 366.247C415.764 363.636 441.694 342.152 453.908 331.736C464.242 350.235 486.321 386.208 491.958 382.104C497.595 378 512.47 351.79 519.203 339.198C543.63 385.213 596.336 438.628 611.744 411.019C627.152 383.41 620.086 364.693 613.666 339.198C567.161 175.035 337.922 278.103 344.499 276.238C351.075 274.372 373.58 295.825 373.58 298.157C373.58 300.023 348.527 311.06 336 316.346Z" stroke="black" stroke-width="9"/>
</g>
<g id="Vector 2.13" filter="url(#filter2_d)">
<path d="M470.031 401.659C458.306 396.381 424.946 388.992 385.305 401.659C381.634 400.107 385.305 442.95 388.975 446.986C392.646 451.022 464.525 449.47 467.89 445.434C471.254 441.398 475.231 412.215 474.007 406.937C473.028 402.715 470.948 401.659 470.031 401.659Z" fill="#D3D3D3"/>
<path d="M470.031 401.659C458.306 396.381 424.946 388.992 385.305 401.659C381.634 400.107 385.305 442.95 388.975 446.986C392.646 451.022 464.525 449.47 467.89 445.434C471.254 441.398 475.231 412.215 474.007 406.937C473.028 402.715 470.948 401.659 470.031 401.659Z" stroke="black" stroke-width="7"/>
</g>
<g id="Vector 3.13" filter="url(#filter3_d)">
<path d="M405.97 427.132C415.053 416.543 424.717 414.149 433.181 415.523C442.032 416.959 449.57 422.517 453.754 427.132" stroke="#4D6EE6" stroke-width="7"/>
</g>
<g id="Vector 2.14" filter="url(#filter4_d)">
<path d="M582.666 401.659C570.941 396.381 537.58 388.992 497.94 401.659C494.269 400.107 497.94 442.95 501.61 446.986C505.28 451.022 577.16 449.47 580.524 445.434C583.889 441.398 587.865 412.215 586.642 406.937C585.663 402.715 583.583 401.659 582.666 401.659Z" fill="#D3D3D3"/>
<path d="M582.666 401.659C570.941 396.381 537.58 388.992 497.94 401.659C494.269 400.107 497.94 442.95 501.61 446.986C505.28 451.022 577.16 449.47 580.524 445.434C583.889 441.398 587.865 412.215 586.642 406.937C585.663 402.715 583.583 401.659 582.666 401.659Z" stroke="black" stroke-width="7"/>
</g>
<g id="Vector 3.14" filter="url(#filter5_d)">
<path d="M518.605 427.132C527.688 416.543 537.352 414.149 545.815 415.523C554.667 416.959 562.205 422.517 566.389 427.132" stroke="#4D6EE6" stroke-width="7"/>
</g>
<g id="Vector 4.5" filter="url(#filter6_d)">
<path d="M474.234 425.423C484.473 409.949 493.29 418.975 496.419 425.423" stroke="black" stroke-width="7"/>
</g>
<g id="Vector 6.3" filter="url(#filter7_d)">
<path d="M474.234 473.269C485.016 451.606 491.241 464.243 493.006 473.269" stroke="black" stroke-width="4"/>
</g>
<path id="Vector 7.6" d="M561.269 516.336C527.687 484.237 473.863 454.112 402.557 516.336L413.598 521.314C474.691 469.036 531.214 500.424 552.989 522.824L561.269 516.336Z" fill="#D7A97F"/>
<path id="Vector 8.2" d="M383.784 421.569C367.523 418.045 355.392 422.67 351.359 425.423" stroke="black" stroke-width="7"/>
<path id="Vector 9.3" d="M583.455 428.707C599.19 424.648 609.353 429.383 612.467 432.258" stroke="black" stroke-width="7"/>
<g id="Vector 5.4" filter="url(#filter8_d)">
<path d="M453.754 507.445C478.612 526.014 500.519 515.182 508.365 507.445" stroke="black" stroke-width="4"/>
</g>
</g>
<g id="Outer">
<g id="Book2">
<path id="Union" fill-rule="evenodd" clip-rule="evenodd" d="M722 201C716.477 201 712 205.477 712 211V351C712 356.523 716.477 361 722 361H738.411H743.647H856.242V201H743.647H738.411H722Z" fill="#45ABD7"/>
<path id="Rectangle 5" d="M722 340.5H854.5V359.5H722C717.306 359.5 713.5 355.694 713.5 351V349C713.5 344.306 717.306 340.5 722 340.5Z" fill="#E3E3E3" stroke="#0D5B87" stroke-width="3"/>
<path id="Union_2" fill-rule="evenodd" clip-rule="evenodd" d="M722 201C716.477 201 712 205.477 712 211V351C712 356.523 716.477 361 722 361H738.411H743.647H856.242V201H743.647H738.411H722Z" fill="#45D7AB"/>
<path id="Rectangle 6" d="M722 340.5H854.5V359.5H722C717.306 359.5 713.5 355.694 713.5 351V349C713.5 344.306 717.306 340.5 722 340.5Z" fill="#E3E3E3" stroke="#0D5B87" stroke-width="3"/>
<line id="Line 2" x1="725.5" y1="201" x2="725.5" y2="339" stroke="#0D5B87" stroke-width="3"/>
<path id="&#196;&#132;" d="M806.371 292.934C805.996 294.316 805.434 295.582 804.684 296.73C803.934 297.879 803.055 298.875 802.047 299.719C801.062 300.562 799.973 301.219 798.777 301.688C797.605 302.156 796.387 302.391 795.121 302.391C793.785 302.391 792.531 302.098 791.359 301.512C790.211 300.926 789.203 300.152 788.336 299.191C787.492 298.254 786.812 297.188 786.297 295.992C785.805 294.797 785.559 293.59 785.559 292.371C785.559 291.316 785.711 290.297 786.016 289.312C786.344 288.352 786.766 287.438 787.281 286.57C787.82 285.703 788.441 284.883 789.145 284.109C789.871 283.359 790.645 282.656 791.465 282C790.41 282.07 789.379 282.152 788.371 282.246C787.387 282.363 786.402 282.516 785.418 282.703C785.371 282.75 785.324 282.773 785.277 282.773C785.23 282.797 785.184 282.809 785.137 282.809C784.621 282.809 784.176 282.609 783.801 282.211C783.449 281.812 783.273 281.379 783.273 280.91C783.273 280.488 783.414 280.102 783.695 279.75C784 279.398 784.387 279.188 784.855 279.117C785.793 278.93 786.742 278.789 787.703 278.695C788.664 278.578 789.648 278.461 790.656 278.344C790.539 277.898 790.398 277.348 790.234 276.691C790.07 276.012 789.848 275.215 789.566 274.301C789.309 273.387 788.992 272.332 788.617 271.137C788.266 269.918 787.844 268.547 787.352 267.023C785.359 267.305 783.438 267.527 781.586 267.691C779.734 267.832 777.871 267.902 775.996 267.902C774.098 267.902 772.176 267.832 770.23 267.691C768.285 267.527 766.246 267.305 764.113 267.023C762.871 270.727 761.863 274.395 761.09 278.027C762.543 278.074 763.996 278.191 765.449 278.379C766.926 278.543 768.426 278.789 769.949 279.117C770.371 279.188 770.711 279.398 770.969 279.75C771.25 280.102 771.391 280.488 771.391 280.91C771.391 281.449 771.18 281.895 770.758 282.246C770.359 282.621 769.938 282.809 769.492 282.809C769.422 282.809 769.363 282.785 769.316 282.738C769.27 282.715 769.211 282.703 769.141 282.703C767.594 282.375 766.07 282.129 764.57 281.965C763.094 281.801 761.617 281.719 760.141 281.719C758.688 281.719 757.258 281.801 755.852 281.965C754.445 282.129 753.016 282.375 751.562 282.703C751.492 282.703 751.434 282.715 751.387 282.738C751.34 282.785 751.281 282.809 751.211 282.809C750.672 282.809 750.227 282.621 749.875 282.246C749.523 281.871 749.348 281.426 749.348 280.91C749.348 280.488 749.477 280.113 749.734 279.785C749.992 279.457 750.344 279.234 750.789 279.117C751.844 278.859 752.898 278.66 753.953 278.52C755.031 278.379 756.133 278.262 757.258 278.168C758.055 274.301 759.098 270.434 760.387 266.566C761.676 262.699 763.211 258.797 764.992 254.859C766.797 250.898 768.859 246.879 771.18 242.801C773.5 238.723 776.113 234.527 779.02 230.215C779.23 229.934 779.465 229.734 779.723 229.617C780.004 229.5 780.273 229.441 780.531 229.441C780.812 229.441 781.082 229.5 781.34 229.617C781.598 229.711 781.809 229.863 781.973 230.074C786.895 236.355 791.113 243.48 794.629 251.449C798.168 259.395 801.074 268.336 803.348 278.273C805.738 278.484 808.117 278.766 810.484 279.117C810.953 279.188 811.328 279.398 811.609 279.75C811.914 280.102 812.066 280.488 812.066 280.91C812.066 281.426 811.855 281.871 811.434 282.246C811.035 282.621 810.613 282.809 810.168 282.809C810.121 282.809 810.074 282.797 810.027 282.773C809.98 282.773 809.934 282.75 809.887 282.703C807.988 282.422 806.102 282.211 804.227 282.07C802.352 281.93 800.5 281.836 798.672 281.789C798.648 281.836 798.637 281.859 798.637 281.859H798.602C797.289 282.68 796.27 283.582 795.543 284.566C794.84 285.574 794.488 286.805 794.488 288.258C794.488 288.867 794.594 289.5 794.805 290.156C795.016 290.836 795.297 291.457 795.648 292.02C796.023 292.582 796.469 293.039 796.984 293.391C797.523 293.766 798.109 293.953 798.742 293.953C799.211 293.953 799.668 293.848 800.113 293.637C800.582 293.426 801.016 293.18 801.414 292.898C801.812 292.617 802.164 292.324 802.469 292.02C802.773 291.715 802.996 291.469 803.137 291.281C803.488 290.859 803.969 290.648 804.578 290.648C805.117 290.648 805.562 290.848 805.914 291.246C806.266 291.645 806.441 292.043 806.441 292.441C806.441 292.512 806.43 292.594 806.406 292.688C806.383 292.781 806.371 292.863 806.371 292.934ZM786.191 263.508C785.324 260.859 784.41 258.422 783.449 256.195C782.488 253.945 781.539 251.93 780.602 250.148C779.688 248.344 778.809 246.773 777.965 245.438C777.145 244.078 776.441 242.965 775.855 242.098C773.676 245.801 771.719 249.422 769.984 252.961C768.273 256.477 766.75 259.992 765.414 263.508C767.289 263.719 769.094 263.895 770.828 264.035C772.562 264.152 774.285 264.211 775.996 264.211C777.684 264.211 779.359 264.152 781.023 264.035C782.711 263.895 784.434 263.719 786.191 263.508Z" fill="black"/>
</g>
<g id="Book3">
<g id="Book3_2">
<path id="Union_3" fill-rule="evenodd" clip-rule="evenodd" d="M393 643C387.477 643 383 647.477 383 653V794C383 799.523 387.477 804 393 804H409.549H414.866H528V643H414.866H409.549H393Z" fill="#45ABD7"/>
<path id="Rectangle 5_2" d="M393 783.545H526.5V802.5H393C388.306 802.5 384.5 798.694 384.5 794V792.045C384.5 787.351 388.306 783.545 393 783.545Z" fill="#E3E3E3" stroke="#0D5B87" stroke-width="3"/>
<path id="Union_4" fill-rule="evenodd" clip-rule="evenodd" d="M393 643C387.477 643 383 647.477 383 653V794C383 799.523 387.477 804 393 804H409.549H414.866H528V643H414.866H409.549H393Z" fill="#D7B745"/>
<path id="Rectangle 6_2" d="M393 783.545H526.5V802.5H393C388.306 802.5 384.5 798.694 384.5 794V792.045C384.5 787.351 388.306 783.545 393 783.545Z" fill="#E3E3E3" stroke="#0D5B87" stroke-width="3"/>
<line id="Line 2_2" x1="396.685" y1="643" x2="396.685" y2="782.045" stroke="#0D5B87" stroke-width="3"/>
</g>
<path id="&#195;&#132;" d="M463.191 711.508C462.324 708.859 461.41 706.422 460.449 704.195C459.488 701.945 458.539 699.93 457.602 698.148C456.688 696.344 455.809 694.773 454.965 693.438C454.145 692.078 453.441 690.965 452.855 690.098C450.676 693.801 448.719 697.422 446.984 700.961C445.273 704.477 443.75 707.992 442.414 711.508C444.289 711.719 446.094 711.895 447.828 712.035C449.562 712.152 451.285 712.211 452.996 712.211C454.684 712.211 456.359 712.152 458.023 712.035C459.711 711.895 461.434 711.719 463.191 711.508ZM487.168 730.809C487.121 730.809 487.074 730.797 487.027 730.773C486.98 730.773 486.934 730.75 486.887 730.703C484.754 730.375 482.645 730.141 480.559 730C478.496 729.859 476.434 729.789 474.371 729.789C472.332 729.789 470.316 729.859 468.324 730C466.355 730.141 464.387 730.375 462.418 730.703C462.371 730.75 462.324 730.773 462.277 730.773C462.23 730.797 462.184 730.809 462.137 730.809C461.621 730.809 461.176 730.609 460.801 730.211C460.449 729.812 460.273 729.379 460.273 728.91C460.273 728.488 460.414 728.102 460.695 727.75C461 727.398 461.387 727.188 461.855 727.117C462.793 726.93 463.742 726.789 464.703 726.695C465.664 726.578 466.648 726.461 467.656 726.344C467.539 725.898 467.398 725.348 467.234 724.691C467.07 724.012 466.848 723.215 466.566 722.301C466.309 721.387 465.992 720.332 465.617 719.137C465.266 717.918 464.844 716.547 464.352 715.023C462.359 715.305 460.438 715.527 458.586 715.691C456.734 715.832 454.871 715.902 452.996 715.902C451.098 715.902 449.176 715.832 447.23 715.691C445.285 715.527 443.246 715.305 441.113 715.023C439.871 718.727 438.863 722.395 438.09 726.027C439.543 726.074 440.996 726.191 442.449 726.379C443.926 726.543 445.426 726.789 446.949 727.117C447.371 727.188 447.711 727.398 447.969 727.75C448.25 728.102 448.391 728.488 448.391 728.91C448.391 729.449 448.18 729.895 447.758 730.246C447.359 730.621 446.938 730.809 446.492 730.809C446.422 730.809 446.363 730.785 446.316 730.738C446.27 730.715 446.211 730.703 446.141 730.703C444.594 730.375 443.07 730.129 441.57 729.965C440.094 729.801 438.617 729.719 437.141 729.719C435.688 729.719 434.258 729.801 432.852 729.965C431.445 730.129 430.016 730.375 428.562 730.703C428.492 730.703 428.434 730.715 428.387 730.738C428.34 730.785 428.281 730.809 428.211 730.809C427.672 730.809 427.227 730.621 426.875 730.246C426.523 729.871 426.348 729.426 426.348 728.91C426.348 728.488 426.477 728.113 426.734 727.785C426.992 727.457 427.344 727.234 427.789 727.117C428.844 726.859 429.898 726.66 430.953 726.52C432.031 726.379 433.133 726.262 434.258 726.168C435.055 722.301 436.098 718.434 437.387 714.566C438.676 710.699 440.211 706.797 441.992 702.859C443.797 698.898 445.859 694.879 448.18 690.801C450.5 686.723 453.113 682.527 456.02 678.215C456.23 677.934 456.465 677.734 456.723 677.617C457.004 677.5 457.273 677.441 457.531 677.441C457.812 677.441 458.082 677.5 458.34 677.617C458.598 677.711 458.809 677.863 458.973 678.074C463.895 684.355 468.113 691.48 471.629 699.449C475.168 707.395 478.074 716.336 480.348 726.273C482.738 726.484 485.117 726.766 487.484 727.117C487.953 727.188 488.328 727.398 488.609 727.75C488.914 728.102 489.066 728.488 489.066 728.91C489.066 729.426 488.855 729.871 488.434 730.246C488.035 730.621 487.613 730.809 487.168 730.809ZM455.422 673.258C455.422 674.008 455.281 674.711 455 675.367C454.719 676.023 454.332 676.598 453.84 677.09C453.348 677.582 452.773 677.969 452.117 678.25C451.461 678.531 450.77 678.672 450.043 678.672C449.293 678.672 448.59 678.531 447.934 678.25C447.277 677.969 446.703 677.582 446.211 677.09C445.719 676.598 445.332 676.023 445.051 675.367C444.77 674.711 444.629 674.008 444.629 673.258C444.629 672.531 444.77 671.84 445.051 671.184C445.332 670.527 445.719 669.953 446.211 669.461C446.703 668.969 447.277 668.582 447.934 668.301C448.59 668.02 449.293 667.879 450.043 667.879C450.77 667.879 451.461 668.02 452.117 668.301C452.773 668.582 453.348 668.969 453.84 669.461C454.332 669.953 454.719 670.527 455 671.184C455.281 671.84 455.422 672.531 455.422 673.258ZM470.75 673.258C470.75 674.008 470.609 674.711 470.328 675.367C470.047 676.023 469.66 676.598 469.168 677.09C468.699 677.582 468.137 677.969 467.48 678.25C466.824 678.531 466.121 678.672 465.371 678.672C464.621 678.672 463.918 678.531 463.262 678.25C462.629 677.969 462.066 677.582 461.574 677.09C461.105 676.598 460.73 676.023 460.449 675.367C460.168 674.711 460.027 674.008 460.027 673.258C460.027 672.531 460.168 671.84 460.449 671.184C460.73 670.527 461.105 669.953 461.574 669.461C462.066 668.969 462.629 668.582 463.262 668.301C463.918 668.02 464.621 667.879 465.371 667.879C466.121 667.879 466.824 668.02 467.48 668.301C468.137 668.582 468.699 668.969 469.168 669.461C469.66 669.953 470.047 670.527 470.328 671.184C470.609 671.84 470.75 672.531 470.75 673.258Z" fill="black"/>
<path d="M383 643V642H382V643H383ZM528 643H529V642H528V643ZM528 804V805H529V804H528ZM383 804H382V805H383V804ZM383 644H528V642H383V644ZM527 643V804H529V643H527ZM528 803H383V805H528V803ZM384 804V643H382V804H384Z" fill="white"/>
</g>
<g id="Book1">
<path id="Union_5" fill-rule="evenodd" clip-rule="evenodd" d="M110 149C104.477 149 100 153.477 100 159V299.84C100 305.363 104.477 309.84 110 309.84H126.549H131.866H245V149H131.866H126.549H110Z" fill="#45ABD7"/>
<path id="Rectangle 3" d="M110 289.5H243.5V308.5H110C105.306 308.5 101.5 304.694 101.5 300V298C101.5 293.306 105.306 289.5 110 289.5Z" fill="#E3E3E3" stroke="#0D5B87" stroke-width="3"/>
<path id="Union_6" fill-rule="evenodd" clip-rule="evenodd" d="M110 149C104.477 149 100 153.477 100 159V299.84C100 305.363 104.477 309.84 110 309.84H126.549H131.866H245V149H131.866H126.549H110Z" fill="#45ABD7"/>
<path id="Rectangle 4" d="M110 289.5H243.5V308.5H110C105.306 308.5 101.5 304.694 101.5 300V298C101.5 293.306 105.306 289.5 110 289.5Z" fill="#E3E3E3" stroke="#0D5B87" stroke-width="3"/>
<line id="Line 1" x1="113.5" y1="149" x2="113.5" y2="288" stroke="#0D5B87" stroke-width="3"/>
<path id="A" d="M172.191 216.508C171.324 213.859 170.41 211.422 169.449 209.195C168.488 206.945 167.539 204.93 166.602 203.148C165.688 201.344 164.809 199.773 163.965 198.438C163.145 197.078 162.441 195.965 161.855 195.098C159.676 198.801 157.719 202.422 155.984 205.961C154.273 209.477 152.75 212.992 151.414 216.508C153.289 216.719 155.094 216.895 156.828 217.035C158.562 217.152 160.285 217.211 161.996 217.211C163.684 217.211 165.359 217.152 167.023 217.035C168.711 216.895 170.434 216.719 172.191 216.508ZM196.168 235.809C196.121 235.809 196.074 235.797 196.027 235.773C195.98 235.773 195.934 235.75 195.887 235.703C193.754 235.375 191.645 235.141 189.559 235C187.496 234.859 185.434 234.789 183.371 234.789C181.332 234.789 179.316 234.859 177.324 235C175.355 235.141 173.387 235.375 171.418 235.703C171.371 235.75 171.324 235.773 171.277 235.773C171.23 235.797 171.184 235.809 171.137 235.809C170.621 235.809 170.176 235.609 169.801 235.211C169.449 234.812 169.273 234.379 169.273 233.91C169.273 233.488 169.414 233.102 169.695 232.75C170 232.398 170.387 232.188 170.855 232.117C171.793 231.93 172.742 231.789 173.703 231.695C174.664 231.578 175.648 231.461 176.656 231.344C176.539 230.898 176.398 230.348 176.234 229.691C176.07 229.012 175.848 228.215 175.566 227.301C175.309 226.387 174.992 225.332 174.617 224.137C174.266 222.918 173.844 221.547 173.352 220.023C171.359 220.305 169.438 220.527 167.586 220.691C165.734 220.832 163.871 220.902 161.996 220.902C160.098 220.902 158.176 220.832 156.23 220.691C154.285 220.527 152.246 220.305 150.113 220.023C148.871 223.727 147.863 227.395 147.09 231.027C148.543 231.074 149.996 231.191 151.449 231.379C152.926 231.543 154.426 231.789 155.949 232.117C156.371 232.188 156.711 232.398 156.969 232.75C157.25 233.102 157.391 233.488 157.391 233.91C157.391 234.449 157.18 234.895 156.758 235.246C156.359 235.621 155.938 235.809 155.492 235.809C155.422 235.809 155.363 235.785 155.316 235.738C155.27 235.715 155.211 235.703 155.141 235.703C153.594 235.375 152.07 235.129 150.57 234.965C149.094 234.801 147.617 234.719 146.141 234.719C144.688 234.719 143.258 234.801 141.852 234.965C140.445 235.129 139.016 235.375 137.562 235.703C137.492 235.703 137.434 235.715 137.387 235.738C137.34 235.785 137.281 235.809 137.211 235.809C136.672 235.809 136.227 235.621 135.875 235.246C135.523 234.871 135.348 234.426 135.348 233.91C135.348 233.488 135.477 233.113 135.734 232.785C135.992 232.457 136.344 232.234 136.789 232.117C137.844 231.859 138.898 231.66 139.953 231.52C141.031 231.379 142.133 231.262 143.258 231.168C144.055 227.301 145.098 223.434 146.387 219.566C147.676 215.699 149.211 211.797 150.992 207.859C152.797 203.898 154.859 199.879 157.18 195.801C159.5 191.723 162.113 187.527 165.02 183.215C165.23 182.934 165.465 182.734 165.723 182.617C166.004 182.5 166.273 182.441 166.531 182.441C166.812 182.441 167.082 182.5 167.34 182.617C167.598 182.711 167.809 182.863 167.973 183.074C172.895 189.355 177.113 196.48 180.629 204.449C184.168 212.395 187.074 221.336 189.348 231.273C191.738 231.484 194.117 231.766 196.484 232.117C196.953 232.188 197.328 232.398 197.609 232.75C197.914 233.102 198.066 233.488 198.066 233.91C198.066 234.426 197.855 234.871 197.434 235.246C197.035 235.621 196.613 235.809 196.168 235.809Z" fill="black"/>
</g>
<path id="Arrow3" d="M126.886 427.423C85.5721 464.317 55.0595 542.735 112.238 645.766C182.112 750.222 275.209 761.983 324.592 734.577C342.152 724.832 332.644 723.632 310.132 720.789C269.333 715.637 185.823 705.091 143.326 628.514C104.392 558.357 107.966 492.303 146.815 445.083L144.518 501.783C144.214 509.278 150.038 515.611 157.525 515.927C165.013 516.244 171.328 510.425 171.632 502.93L174.901 422.24C175.01 419.54 174.324 416.99 173.051 414.818C173.159 414.056 173.203 413.275 173.178 412.48C172.947 404.981 166.687 399.081 159.197 399.3L78.5592 401.659C71.0693 401.878 65.1853 408.134 65.417 415.632C65.6485 423.131 71.9082 429.032 79.3981 428.813L126.886 427.423Z" fill="#3BAE39"/>
<path id="Arrow2" d="M660.505 118.757C648.293 64.7312 594.533 0 476.698 0C351.458 10.4094 296 86.1042 296 142.583C296 162.665 301.664 154.934 315.073 136.63C339.375 103.456 389.119 35.5541 476.698 35.5541C556.934 35.5541 612.957 70.732 635.393 127.614L586.93 98.0916C580.524 94.1893 572.161 96.2086 568.251 102.602C564.341 108.995 566.364 117.341 572.77 121.243L641.738 163.256C644.046 164.662 646.609 165.299 649.125 165.24C649.739 165.704 650.401 166.122 651.108 166.486C657.777 169.922 665.974 167.312 669.417 160.657L706.483 89.0039C709.926 82.3486 707.311 74.1679 700.642 70.732C693.973 67.2959 685.776 69.9058 682.333 76.5611L660.505 118.757Z" fill="#3BAE39"/>
<path id="Arrow1" d="M655.197 723.145C705.879 745.489 789.894 740.818 860.031 646.131C926.211 539.296 898.395 449.677 853.011 416.06C836.873 404.107 839.714 413.26 846.441 434.93C858.634 474.204 883.589 554.593 831.461 624.969C783.703 689.443 722.09 713.523 663.027 697.695L715.596 676.324C722.545 673.499 725.9 665.577 723.09 658.629C720.28 651.682 712.369 648.34 705.42 651.165L630.61 681.579C628.106 682.596 626.069 684.276 624.618 686.334C623.881 686.551 623.151 686.834 622.437 687.185C615.707 690.499 612.925 698.64 616.224 705.367L651.739 777.801C655.038 784.529 663.168 787.297 669.898 783.984C676.629 780.67 679.411 772.53 676.112 765.802L655.197 723.145Z" fill="#3BAE39"/>
</g>
</g>
<defs>
<filter id="filter0_d" x="343.946" y="278.467" width="277.641" height="286.533" filterUnits="userSpaceOnUse" color-interpolation-filters="sRGB">
<feFlood flood-opacity="0" result="BackgroundImageFix"/>
<feColorMatrix in="SourceAlpha" type="matrix" values="0 0 0 0 0 0 0 0 0 0 0 0 0 0 0 0 0 0 127 0"/>
<feOffset dy="4"/>
<feGaussianBlur stdDeviation="2"/>
<feColorMatrix type="matrix" values="0 0 0 0 0 0 0 0 0 0 0 0 0 0 0 0 0 0 0.25 0"/>
<feBlend mode="normal" in2="BackgroundImageFix" result="effect1_dropShadow"/>
<feBlend mode="normal" in="SourceGraphic" in2="effect1_dropShadow" result="shape"/>
</filter>
<filter id="filter1_d" x="325.637" y="241.5" width="303.863" height="189.588" filterUnits="userSpaceOnUse" color-interpolation-filters="sRGB">
<feFlood flood-opacity="0" result="BackgroundImageFix"/>
<feColorMatrix in="SourceAlpha" type="matrix" values="0 0 0 0 0 0 0 0 0 0 0 0 0 0 0 0 0 0 127 0"/>
<feOffset dy="4"/>
<feGaussianBlur stdDeviation="2"/>
<feColorMatrix type="matrix" values="0 0 0 0 0 0 0 0 0 0 0 0 0 0 0 0 0 0 0.25 0"/>
<feBlend mode="normal" in2="BackgroundImageFix" result="effect1_dropShadow"/>
<feBlend mode="normal" in="SourceGraphic" in2="effect1_dropShadow" result="shape"/>
</filter>
<filter id="filter2_d" x="376.284" y="391.165" width="105.449" height="69.6813" filterUnits="userSpaceOnUse" color-interpolation-filters="sRGB">
<feFlood flood-opacity="0" result="BackgroundImageFix"/>
<feColorMatrix in="SourceAlpha" type="matrix" values="0 0 0 0 0 0 0 0 0 0 0 0 0 0 0 0 0 0 127 0"/>
<feOffset dy="4"/>
<feGaussianBlur stdDeviation="2"/>
<feColorMatrix type="matrix" values="0 0 0 0 0 0 0 0 0 0 0 0 0 0 0 0 0 0 0.25 0"/>
<feBlend mode="normal" in2="BackgroundImageFix" result="effect1_dropShadow"/>
<feBlend mode="normal" in="SourceGraphic" in2="effect1_dropShadow" result="shape"/>
</filter>
<filter id="filter3_d" x="399.314" y="411.67" width="61.0337" height="25.8127" filterUnits="userSpaceOnUse" color-interpolation-filters="sRGB">
<feFlood flood-opacity="0" result="BackgroundImageFix"/>
<feColorMatrix in="SourceAlpha" type="matrix" values="0 0 0 0 0 0 0 0 0 0 0 0 0 0 0 0 0 0 127 0"/>
<feOffset dy="4"/>
<feGaussianBlur stdDeviation="2"/>
<feColorMatrix type="matrix" values="0 0 0 0 0 0 0 0 0 0 0 0 0 0 0 0 0 0 0.25 0"/>
<feBlend mode="normal" in2="BackgroundImageFix" result="effect1_dropShadow"/>
<feBlend mode="normal" in="SourceGraphic" in2="effect1_dropShadow" result="shape"/>
</filter>
<filter id="filter4_d" x="488.919" y="391.165" width="105.449" height="69.6813" filterUnits="userSpaceOnUse" color-interpolation-filters="sRGB">
<feFlood flood-opacity="0" result="BackgroundImageFix"/>
<feColorMatrix in="SourceAlpha" type="matrix" values="0 0 0 0 0 0 0 0 0 0 0 0 0 0 0 0 0 0 127 0"/>
<feOffset dy="4"/>
<feGaussianBlur stdDeviation="2"/>
<feColorMatrix type="matrix" values="0 0 0 0 0 0 0 0 0 0 0 0 0 0 0 0 0 0 0.25 0"/>
<feBlend mode="normal" in2="BackgroundImageFix" result="effect1_dropShadow"/>
<feBlend mode="normal" in="SourceGraphic" in2="effect1_dropShadow" result="shape"/>
</filter>
<filter id="filter5_d" x="511.948" y="411.67" width="61.0337" height="25.8127" filterUnits="userSpaceOnUse" color-interpolation-filters="sRGB">
<feFlood flood-opacity="0" result="BackgroundImageFix"/>
<feColorMatrix in="SourceAlpha" type="matrix" values="0 0 0 0 0 0 0 0 0 0 0 0 0 0 0 0 0 0 127 0"/>
<feOffset dy="4"/>
<feGaussianBlur stdDeviation="2"/>
<feColorMatrix type="matrix" values="0 0 0 0 0 0 0 0 0 0 0 0 0 0 0 0 0 0 0.25 0"/>
<feBlend mode="normal" in2="BackgroundImageFix" result="effect1_dropShadow"/>
<feBlend mode="normal" in="SourceGraphic" in2="effect1_dropShadow" result="shape"/>
</filter>
<filter id="filter6_d" x="467.315" y="413.379" width="36.2533" height="21.9754" filterUnits="userSpaceOnUse" color-interpolation-filters="sRGB">
<feFlood flood-opacity="0" result="BackgroundImageFix"/>
<feColorMatrix in="SourceAlpha" type="matrix" values="0 0 0 0 0 0 0 0 0 0 0 0 0 0 0 0 0 0 127 0"/>
<feOffset dy="4"/>
<feGaussianBlur stdDeviation="2"/>
<feColorMatrix type="matrix" values="0 0 0 0 0 0 0 0 0 0 0 0 0 0 0 0 0 0 0.25 0"/>
<feBlend mode="normal" in2="BackgroundImageFix" result="effect1_dropShadow"/>
<feBlend mode="normal" in="SourceGraphic" in2="effect1_dropShadow" result="shape"/>
</filter>
<filter id="filter7_d" x="468.443" y="459.308" width="30.5258" height="22.8527" filterUnits="userSpaceOnUse" color-interpolation-filters="sRGB">
<feFlood flood-opacity="0" result="BackgroundImageFix"/>
<feColorMatrix in="SourceAlpha" type="matrix" values="0 0 0 0 0 0 0 0 0 0 0 0 0 0 0 0 0 0 127 0"/>
<feOffset dy="4"/>
<feGaussianBlur stdDeviation="2"/>
<feColorMatrix type="matrix" values="0 0 0 0 0 0 0 0 0 0 0 0 0 0 0 0 0 0 0.25 0"/>
<feBlend mode="normal" in2="BackgroundImageFix" result="effect1_dropShadow"/>
<feBlend mode="normal" in="SourceGraphic" in2="effect1_dropShadow" result="shape"/>
</filter>
<filter id="filter8_d" x="448.558" y="505.843" width="65.212" height="21.8591" filterUnits="userSpaceOnUse" color-interpolation-filters="sRGB">
<feFlood flood-opacity="0" result="BackgroundImageFix"/>
<feColorMatrix in="SourceAlpha" type="matrix" values="0 0 0 0 0 0 0 0 0 0 0 0 0 0 0 0 0 0 127 0"/>
<feOffset dy="4"/>
<feGaussianBlur stdDeviation="2"/>
<feColorMatrix type="matrix" values="0 0 0 0 0 0 0 0 0 0 0 0 0 0 0 0 0 0 0.25 0"/>
<feBlend mode="normal" in2="BackgroundImageFix" result="effect1_dropShadow"/>
<feBlend mode="normal" in="SourceGraphic" in2="effect1_dropShadow" result="shape"/>
</filter>
</defs>
</svg>
